<svg width="100" height="105" viewBox="0 0 100 105" fill="none" xmlns="http://www.w3.org/2000/svg">
<g opacity="0.9">
<path d="M35.5781 61.8892C34.4615 63.3211 33.3525 64.4987 32.4702 65.3867C31.2055 62.1712 28.9195 59.8913 26.6345 58.2981C24.0798 56.5168 21.4215 55.5245 20.0534 55.0138C19.9189 54.9636 19.7968 54.918 19.6886 54.8768C13.8277 52.0928 10.5695 49.2869 8.84982 47.0157C8.45499 46.4942 8.14487 46.0068 7.90293 45.5583C9.38736 46.3019 10.9667 46.7614 12.4578 47.0338C15.1518 47.5258 17.7265 47.4389 19.3237 47.1965L24.1869 46.4584L19.7393 44.3573C9.85472 39.6874 5.04948 34.9565 2.94691 31.1251C1.79791 29.0313 1.44721 27.2004 1.50632 25.7388C2.84705 27.4369 4.43012 28.8737 5.98516 30.0431C8.35659 31.8263 10.7487 33.0517 12.3276 33.6719L17.4636 35.6895L14.0559 31.3494C13.265 30.3422 9.82977 24.8441 6.84275 18.4265C5.35691 15.2342 4.00879 11.8702 3.15966 8.77272C2.8677 7.70771 2.64107 6.69618 2.4859 5.74989C13.1714 21.1022 26.6061 30.6051 32.5378 33.6626C33.0309 33.9518 33.7982 34.614 34.7063 35.6575C35.6072 36.6929 36.5746 38.0203 37.4628 39.5272C39.2522 42.5636 40.6223 46.1621 40.6294 49.4534C40.4487 54.4535 38.0411 58.731 35.5781 61.8892Z" stroke="#101012" stroke-width="3"/>
<path d="M64.8303 61.8956C65.924 63.3136 67.0102 64.4822 67.8785 65.367C69.1305 62.1667 71.385 59.8937 73.6419 58.3026C76.1707 56.5197 78.8025 55.5264 80.1556 55.0157C80.2882 54.9657 80.4085 54.9203 80.5153 54.8792C86.3083 52.0967 89.5289 49.2925 91.229 47.022C91.6168 46.5042 91.922 46.0198 92.1608 45.5734C90.7009 46.3076 89.1498 46.7626 87.6844 47.0332C85.0163 47.526 82.4662 47.4391 80.8833 47.1962L76.0725 46.4579L80.4643 44.36C90.2365 39.692 94.9876 34.963 97.0672 31.1312C98.195 29.0532 98.546 27.2328 98.4946 25.7747C97.1756 27.4545 95.6226 28.8778 94.0964 30.0383C91.7499 31.8223 89.3824 33.0487 87.8186 33.6698L82.7063 35.7004L86.0802 31.3558C86.8624 30.3485 90.26 24.8502 93.2144 18.4322C94.6839 15.2398 96.0175 11.8752 96.8576 8.77678C97.1409 7.73184 97.3621 6.73805 97.5154 5.80661C86.9546 21.1214 73.6953 30.604 67.8333 33.6592C67.3481 33.9471 66.5905 34.6079 65.6924 35.6513C64.8016 36.6865 63.8448 38.0138 62.9663 39.521C61.1965 42.5574 59.84 46.1582 59.833 49.4537C60.0119 54.4587 62.3951 58.7383 64.8303 61.8956Z" stroke="#101012" stroke-width="3"/>
<circle cx="49.7104" cy="36.1398" r="24.2109" fill="#101012" stroke="#101012"/>
<path d="M49.905 80.5918L62.7548 70.943L49.3649 85.6837L36.044 70.9504L48.8226 80.5906C49.1428 80.8322 49.5842 80.8327 49.905 80.5918Z" fill="#101012" stroke="#101012"/>
<path d="M49.8941 91.6532L59.0611 85.1438L49.3733 95.2294L39.737 85.1506L48.8503 91.652C49.1625 91.8747 49.5814 91.8752 49.8941 91.6532ZM49.4454 95.3048L49.4451 95.3045L49.4454 95.3048Z" fill="#101012" stroke="#101012"/>
<path d="M49.8668 101.54L55.2369 98.1007L49.3817 103.599L43.5598 98.1065L48.8944 101.539C49.1904 101.73 49.5703 101.73 49.8668 101.54Z" fill="#101012" stroke="#101012"/>
</g>
<path d="M39.3535 33.6464L49.3535 43.6464" stroke="#00FFFF" stroke-width="3" stroke-linecap="round"/>
<path d="M59.6465 33.6464L49.6465 43.6464" stroke="#00FFFF" stroke-width="3" stroke-linecap="round"/>
</svg>
