<svg width="176" height="74" viewBox="0 0 176 74" fill="none" xmlns="http://www.w3.org/2000/svg">
<path fill-rule="evenodd" clip-rule="evenodd" d="M25.0949 15.2315C28.7872 12.7106 33.1897 11.1981 37.9117 11V21.0836C35.3554 21.2457 32.9767 22.074 30.9352 23.3884L25.0949 15.2315Z" fill="white"/>
<path fill-rule="evenodd" clip-rule="evenodd" d="M15.5441 27.4759C17.1418 23.0823 19.9111 19.265 23.4792 16.4199L29.3195 24.5769C27.4201 26.1794 25.9289 28.2502 25.0058 30.609L15.5441 27.4759Z" fill="white"/>
<path fill-rule="evenodd" clip-rule="evenodd" d="M14.9231 43.0873C14.3195 40.9086 14 38.6217 14 36.2449C14 33.868 14.3195 31.5812 14.9231 29.4024L24.3848 32.5175C24.083 33.706 23.9232 34.9484 23.9232 36.2449C23.9232 37.5233 24.083 38.7838 24.3848 39.9722L14.9231 43.0873Z" fill="white"/>
<path fill-rule="evenodd" clip-rule="evenodd" d="M23.4792 56.0883C19.9288 53.2432 17.1418 49.4259 15.5441 45.0323L25.0058 41.9172C25.9289 44.276 27.4378 46.3468 29.3195 47.9493L23.4792 56.0883Z" fill="white"/>
<path fill-rule="evenodd" clip-rule="evenodd" d="M37.9117 61.5079C33.1719 61.3099 28.7872 59.7973 25.0949 57.2764L30.9352 49.1195C32.9767 50.434 35.3554 51.2443 37.9117 51.4243V61.5079Z" fill="white"/>
<path fill-rule="evenodd" clip-rule="evenodd" d="M52.7346 57.2764C49.0422 59.7793 44.6397 61.3099 39.9178 61.5079V51.4243C42.474 51.2623 44.8528 50.434 46.8942 49.1195L52.7346 57.2764Z" fill="white"/>
<path fill-rule="evenodd" clip-rule="evenodd" d="M62.285 45.014C60.6873 49.4076 57.9181 53.225 54.35 56.07L48.5096 47.9131C50.4091 46.3105 51.9002 44.2398 52.8233 41.8809L62.285 45.014Z" fill="white"/>
<path fill-rule="evenodd" clip-rule="evenodd" d="M62.9065 29.4024C63.51 31.5812 63.8296 33.868 63.8296 36.2449C63.8296 38.6217 63.51 40.9086 62.9065 43.0873L53.4448 39.9722C53.7466 38.7838 53.9063 37.5413 53.9063 36.2449C53.9063 34.9664 53.7466 33.706 53.4448 32.5175L62.9065 29.4024Z" fill="white"/>
<path fill-rule="evenodd" clip-rule="evenodd" d="M54.3675 16.4199C57.9179 19.265 60.7049 23.0823 62.3026 27.4759L52.8409 30.591C51.9178 28.2322 50.4089 26.1614 48.5272 24.5589L54.3675 16.4199Z" fill="white"/>
<path fill-rule="evenodd" clip-rule="evenodd" d="M39.9178 11C44.6575 11.1981 49.0422 12.7106 52.7346 15.2315L46.8942 23.3884C44.8528 22.074 42.474 21.2457 39.9178 21.0836V11Z" fill="white"/>
<path d="M29.0274 37.5246H28.3606L27.8917 36.8854H26.844V37.5246H26.3091V36.3355H28.1481C28.2434 36.3355 28.324 36.2983 28.3899 36.2314C28.4559 36.1646 28.4925 36.0828 28.4925 35.9862C28.4925 35.8896 28.4559 35.8078 28.3899 35.7335C28.324 35.6592 28.2434 35.6295 28.1481 35.6295H26.3091V35.0869H28.1481C28.2727 35.0869 28.3826 35.1092 28.4925 35.1612C28.7123 35.2579 28.8662 35.4214 28.9614 35.6369C29.0054 35.7558 29.0347 35.8673 29.0347 35.9862C29.0347 36.0977 29.0127 36.2166 28.9614 36.3355C28.8662 36.551 28.7123 36.7071 28.5071 36.8037L29.0274 37.5246Z" fill="white"/>
<path d="M32.6688 37.5246H32.0534L31.0936 35.7781L30.1264 37.5246H29.511L30.8591 35.0869H31.328L32.6688 37.5246Z" fill="white"/>
<path d="M36.3102 37.5246H35.7753V35.9267L34.9547 37.1158H34.5151L33.6945 35.9267V37.5172H33.1523V35.0869H33.7605L34.7276 36.4916L35.7021 35.0869H36.3102V37.5246Z" fill="white"/>
<path d="M39.6952 35.6443H36.9769V35.0944H39.6952V35.6443ZM39.6952 37.5246H36.9769V36.9821H39.6952V37.5246ZM39.4754 36.5808H37.1894V36.0382H39.4754V36.5808Z" fill="white"/>
<path d="M42.1716 37.5246H41.014C40.9114 37.5246 40.8089 37.5023 40.7136 37.4651C40.5231 37.3908 40.3839 37.257 40.296 37.0713C40.252 36.9821 40.23 36.878 40.23 36.774H40.7722C40.7722 36.8186 40.7869 36.8557 40.8089 36.8855C40.8308 36.9152 40.8675 36.9375 40.9041 36.9523C40.9407 36.9672 40.9774 36.9746 41.014 36.9746H42.1716C42.2083 36.9746 42.2449 36.9672 42.2815 36.9523C42.3182 36.9375 42.3475 36.9152 42.3768 36.8855C42.4061 36.8557 42.4134 36.8186 42.4134 36.774C42.4134 36.7294 42.3988 36.6997 42.3768 36.6699C42.3548 36.6402 42.3182 36.6179 42.2815 36.603C42.2449 36.5882 42.2083 36.5807 42.1716 36.5807H41.014C40.9114 36.5807 40.8089 36.5659 40.7136 36.5213C40.5231 36.447 40.3839 36.3132 40.296 36.1274C40.252 36.0382 40.23 35.9342 40.23 35.8301C40.23 35.7261 40.252 35.6295 40.296 35.5328C40.3839 35.347 40.5231 35.2133 40.7136 35.1389C40.8089 35.1018 40.9041 35.0795 41.014 35.0795H42.1716C42.2742 35.0795 42.3768 35.0944 42.472 35.1389C42.6625 35.2133 42.8017 35.347 42.8897 35.5328C42.9336 35.622 42.9556 35.7261 42.9556 35.8301H42.4208C42.4208 35.7855 42.4061 35.7558 42.3841 35.7261C42.3621 35.6963 42.3255 35.674 42.2889 35.6592C42.2522 35.6443 42.2156 35.6369 42.179 35.6369H41.0213C40.9847 35.6369 40.9481 35.6443 40.9114 35.6592C40.8748 35.674 40.8455 35.6963 40.8162 35.7261C40.7869 35.7558 40.7795 35.793 40.7795 35.8301C40.7795 35.8747 40.7942 35.9119 40.8162 35.9416C40.8382 35.9713 40.8748 35.9936 40.9114 36.0085C40.9481 36.0233 40.9847 36.0308 41.0213 36.0308H42.179C42.2815 36.0308 42.3841 36.0531 42.4794 36.0902C42.6699 36.1646 42.8091 36.2983 42.897 36.4841C42.941 36.5733 42.9629 36.6699 42.9629 36.774C42.9629 36.878 42.941 36.9746 42.897 37.0713C42.8091 37.257 42.6699 37.3908 42.4794 37.4651C42.3695 37.5023 42.2742 37.5246 42.1716 37.5246Z" fill="white"/>
<path d="M44.8679 37.5246H44.333V35.6295H43.4538V35.0869H45.7398V35.6295H44.8679V37.5246Z" fill="white"/>
<path d="M47.7254 37.5246H47.1906V35.6295H46.3114V35.0869H48.5973V35.6295H47.7254V37.5246Z" fill="white"/>
<path d="M51.4767 37.5246H50.8612L49.9014 35.7781L48.9343 37.5246H48.3188L49.6596 35.0869H50.1285L51.4767 37.5246Z" fill="white"/>
<path d="M72.8577 33.8499V21.054H78.3362C79.1292 21.054 79.82 21.1941 80.4087 21.4744C80.9974 21.7547 81.4539 22.1508 81.7783 22.6626C82.1027 23.1744 82.2649 23.7777 82.2649 24.4723V24.6917C82.2649 25.4594 82.0847 26.0809 81.7242 26.5562C81.3638 27.0315 80.9193 27.3788 80.3907 27.5982V27.9272C80.8712 27.9516 81.2437 28.1222 81.508 28.439C81.7723 28.7437 81.9044 29.152 81.9044 29.6638V33.8499H79.5256V30.0111C79.5256 29.7186 79.4475 29.481 79.2914 29.2982C79.1472 29.1154 78.9009 29.024 78.5525 29.024H75.2366V33.8499H72.8577ZM75.2366 26.8304H78.0839C78.6486 26.8304 79.0871 26.6781 79.3995 26.3734C79.7239 26.0566 79.8861 25.6422 79.8861 25.1304V24.9476C79.8861 24.4357 79.7299 24.0275 79.4175 23.7228C79.1051 23.406 78.6606 23.2475 78.0839 23.2475H75.2366V26.8304Z" fill="white"/>
<path d="M83.3792 33.8499L86.6952 21.054H90.8401L94.156 33.8499H91.7051L91.0203 31.0348H86.5149L85.8301 33.8499H83.3792ZM87.0736 28.8046H90.4616L88.9298 22.5712H88.6054L87.0736 28.8046Z" fill="white"/>
<path d="M95.666 33.8499V21.054H100.081L102.262 32.2047H102.586L104.767 21.054H109.182V33.8499H106.875V22.8271H106.551L104.388 33.8499H100.46L98.2971 22.8271H97.9727V33.8499H95.666Z" fill="white"/>
<path d="M111.558 33.8499V21.054H119.667V23.2475H113.937V26.3003H119.163V28.4939H113.937V31.6563H119.776V33.8499H111.558Z" fill="white"/>
<path d="M125.916 34.1058C124.942 34.1058 124.083 33.9291 123.339 33.5757C122.594 33.2223 122.011 32.7165 121.591 32.0585C121.17 31.4004 120.96 30.6083 120.96 29.6821V29.1702H123.303V29.6821C123.303 30.4498 123.537 31.0287 124.005 31.4187C124.474 31.7964 125.111 31.9853 125.916 31.9853C126.733 31.9853 127.339 31.8208 127.736 31.4918C128.144 31.1627 128.349 30.7423 128.349 30.2305C128.349 29.8771 128.246 29.5907 128.042 29.3713C127.85 29.152 127.562 28.9752 127.177 28.8412C126.805 28.695 126.348 28.5609 125.808 28.439L125.393 28.3476C124.528 28.1527 123.783 27.9089 123.158 27.6164C122.546 27.3118 122.071 26.9157 121.735 26.4282C121.41 25.9408 121.248 25.3071 121.248 24.5271C121.248 23.7472 121.428 23.083 121.789 22.5346C122.161 21.9741 122.678 21.5475 123.339 21.255C124.011 20.9504 124.798 20.798 125.699 20.798C126.6 20.798 127.399 20.9565 128.096 21.2733C128.805 21.578 129.358 22.0411 129.754 22.6626C130.163 23.2719 130.367 24.0397 130.367 24.9659V25.5143H128.024V24.9659C128.024 24.4784 127.928 24.0884 127.736 23.7959C127.556 23.4913 127.291 23.2719 126.943 23.1379C126.594 22.9916 126.18 22.9185 125.699 22.9185C124.979 22.9185 124.444 23.0587 124.095 23.3389C123.759 23.6071 123.591 23.9787 123.591 24.454C123.591 24.7709 123.669 25.039 123.825 25.2583C123.993 25.4777 124.24 25.6605 124.564 25.8067C124.888 25.953 125.303 26.0809 125.808 26.1906L126.222 26.282C127.123 26.477 127.904 26.7268 128.565 27.0315C129.238 27.3362 129.76 27.7383 130.133 28.238C130.505 28.7376 130.691 29.3774 130.691 30.1573C130.691 30.9373 130.493 31.6258 130.097 32.223C129.712 32.8079 129.159 33.271 128.439 33.6122C127.73 33.9413 126.889 34.1058 125.916 34.1058Z" fill="white"/>
<path d="M134.98 33.8499V23.2475H131.304V21.054H141.035V23.2475H137.359V33.8499H134.98Z" fill="white"/>
<path d="M145.575 33.8499V23.2475H141.898V21.054H151.63V23.2475H147.953V33.8499H145.575Z" fill="white"/>
<path d="M151.223 33.8499L154.539 21.054H158.684L162 33.8499H159.549L158.864 31.0348H154.359L153.674 33.8499H151.223ZM154.918 28.8046H158.306L156.774 22.5712H156.449L154.918 28.8046Z" fill="white"/>
<path d="M72.3605 53.0438V51.2732H73.7449V44.1298H72.3605V42.3592H77.7777C78.4198 42.3592 78.9765 42.4711 79.448 42.695C79.9296 42.9087 80.3008 43.219 80.5616 43.6261C80.8324 44.0229 80.9679 44.5012 80.9679 45.0609V45.2135C80.9679 45.7019 80.8776 46.1039 80.697 46.4193C80.5164 46.7246 80.3008 46.9637 80.05 47.1367C79.8092 47.2995 79.5785 47.4165 79.3578 47.4878V47.7625C79.5785 47.8236 79.8192 47.9406 80.0801 48.1136C80.3409 48.2764 80.5616 48.5155 80.7422 48.831C80.9328 49.1464 81.0281 49.5586 81.0281 50.0674V50.22C81.0281 50.8102 80.8926 51.319 80.6218 51.7464C80.3509 52.1636 79.9747 52.4841 79.4932 52.708C79.0217 52.9318 78.4699 53.0438 77.8379 53.0438H72.3605ZM75.7312 51.2121H77.5972C78.0285 51.2121 78.3746 51.1053 78.6355 50.8916C78.9063 50.6779 79.0418 50.3726 79.0418 49.9758V49.8231C79.0418 49.4263 78.9113 49.121 78.6505 48.9073C78.3897 48.6936 78.0386 48.5868 77.5972 48.5868H75.7312V51.2121ZM75.7312 46.7551H77.5671C77.9784 46.7551 78.3144 46.6483 78.5753 46.4346C78.8461 46.2209 78.9816 45.9258 78.9816 45.5493V45.3967C78.9816 45.01 78.8512 44.7149 78.5903 44.5114C78.3295 44.2977 77.9884 44.1908 77.5671 44.1908H75.7312V46.7551Z" fill="white"/>
<path d="M82.6542 53.0438V42.3592H84.6405V51.2121H89.4558V53.0438H82.6542Z" fill="white"/>
<path d="M94.5503 53.2575C93.2261 53.2575 92.1727 52.8911 91.3903 52.1585C90.6078 51.4156 90.2165 50.3574 90.2165 48.9836V46.4193C90.2165 45.0456 90.6078 43.9924 91.3903 43.2597C92.1727 42.5169 93.2261 42.1455 94.5503 42.1455C95.8745 42.1455 96.9278 42.5169 97.7103 43.2597C98.4928 43.9924 98.8841 45.0456 98.8841 46.4193V48.9836C98.8841 50.3574 98.4928 51.4156 97.7103 52.1585C96.9278 52.8911 95.8745 53.2575 94.5503 53.2575ZM94.5503 51.4563C95.2927 51.4563 95.8695 51.2376 96.2808 50.8C96.6921 50.3624 96.8978 49.7773 96.8978 49.0447V46.3583C96.8978 45.6256 96.6921 45.0405 96.2808 44.6029C95.8695 44.1654 95.2927 43.9466 94.5503 43.9466C93.818 43.9466 93.2411 44.1654 92.8198 44.6029C92.4085 45.0405 92.2028 45.6256 92.2028 46.3583V49.0447C92.2028 49.7773 92.4085 50.3624 92.8198 50.8C93.2411 51.2376 93.818 51.4563 94.5503 51.4563Z" fill="white"/>
<path d="M104.629 53.2575C103.325 53.2575 102.292 52.8911 101.529 52.1585C100.767 51.4156 100.386 50.3574 100.386 48.9836V46.4193C100.386 45.0456 100.767 43.9924 101.529 43.2597C102.292 42.5169 103.325 42.1455 104.629 42.1455C105.923 42.1455 106.921 42.5067 107.624 43.2292C108.336 43.9415 108.692 44.9235 108.692 46.1751V46.2667H106.736V46.114C106.736 45.4831 106.56 44.9642 106.209 44.5571C105.868 44.1501 105.341 43.9466 104.629 43.9466C103.927 43.9466 103.375 44.1654 102.974 44.6029C102.573 45.0405 102.372 45.6358 102.372 46.3888V49.0142C102.372 49.757 102.573 50.3523 102.974 50.8C103.375 51.2376 103.927 51.4563 104.629 51.4563C105.341 51.4563 105.868 51.2528 106.209 50.8458C106.56 50.4286 106.736 49.9096 106.736 49.2889V49.0142H108.692V49.2278C108.692 50.4795 108.336 51.4665 107.624 52.189C106.921 52.9013 105.923 53.2575 104.629 53.2575Z" fill="white"/>
<path d="M110.31 53.0438V42.3592H112.297V46.6025H112.568L115.983 42.3592H118.527L114.133 47.6252L118.677 53.0438H116.059L112.568 48.7089H112.297V53.0438H110.31Z" fill="white"/>
<path d="M123.277 53.2575C121.973 53.2575 120.94 52.8911 120.177 52.1585C119.415 51.4156 119.034 50.3574 119.034 48.9836V46.4193C119.034 45.0456 119.415 43.9924 120.177 43.2597C120.94 42.5169 121.973 42.1455 123.277 42.1455C124.571 42.1455 125.569 42.5067 126.272 43.2292C126.984 43.9415 127.34 44.9235 127.34 46.1751V46.2667H125.384V46.114C125.384 45.4831 125.208 44.9642 124.857 44.5571C124.516 44.1501 123.989 43.9466 123.277 43.9466C122.575 43.9466 122.023 44.1654 121.622 44.6029C121.221 45.0405 121.02 45.6358 121.02 46.3888V49.0142C121.02 49.757 121.221 50.3523 121.622 50.8C122.023 51.2376 122.575 51.4563 123.277 51.4563C123.989 51.4563 124.516 51.2528 124.857 50.8458C125.208 50.4286 125.384 49.9096 125.384 49.2889V49.0142H127.34V49.2278C127.34 50.4795 126.984 51.4665 126.272 52.189C125.569 52.9013 124.571 53.2575 123.277 53.2575Z" fill="white"/>
<path d="M128.959 53.0438V42.3592H130.945V46.7704H134.857V42.3592H136.844V53.0438H134.857V48.602H130.945V53.0438H128.959Z" fill="white"/>
<path d="M138.111 53.0438L140.88 42.3592H144.341L147.11 53.0438H145.063L144.492 50.6932H140.73L140.158 53.0438H138.111ZM141.196 48.831H144.025L142.746 43.6261H142.475L141.196 48.831Z" fill="white"/>
<path d="M148.371 53.0438V42.3592H150.357V53.0438H148.371Z" fill="white"/>
<path d="M152.338 53.0438V42.3592H156.115L158.207 51.67H158.478V42.3592H160.434V53.0438H156.657L154.566 43.7329H154.295V53.0438H152.338Z" fill="white"/>
</svg>
