<svg width="138" height="93" viewBox="0 0 138 93" fill="none" xmlns="http://www.w3.org/2000/svg">
<path d="M44.558 91.2845C44.3274 91.51 44.1223 91.7106 43.952 91.8807C42.6701 86.5721 39.2635 82.9549 35.7486 80.5041C32.4072 78.1742 28.9327 76.8751 27.0445 76.1691C26.8329 76.09 26.6413 76.0184 26.472 75.9535C18.2209 72.0421 13.4943 68.0319 10.9287 64.6433C8.84191 61.8871 8.20102 59.5688 8.21417 58.0433C10.8303 60.3748 14.2124 61.6003 17.42 62.1861C20.9419 62.8294 24.3092 62.7121 26.3503 62.4023L27.9713 62.1563L26.4888 61.4559C12.7248 54.9533 5.79334 48.257 2.68346 42.5899C-0.114259 37.4917 0.17264 33.2208 1.3524 30.5932C3.33977 34.0575 6.26029 36.9083 9.17396 39.0993C12.3199 41.4649 15.4863 43.0826 17.5317 43.8861L19.2437 44.5586L18.1078 43.1119C16.9152 41.593 12.1304 33.9088 7.99643 25.0271C5.93201 20.5918 4.03887 15.8764 2.83894 11.4994C1.79766 7.70096 1.29225 4.20514 1.61645 1.38254C16.5683 25.0436 37.0013 39.5788 45.5151 43.9564C46.416 44.4739 47.6186 45.5427 48.9274 47.0468C50.2332 48.5474 51.6196 50.4521 52.8872 52.6032C55.4271 56.9128 57.458 62.1557 57.4604 67.0799C57.2034 74.4384 53.6704 80.6483 50.1803 85.1236C48.4373 87.3587 46.7127 89.1513 45.4275 90.4291C45.1141 90.7407 44.8197 91.0286 44.558 91.2845Z" stroke="#00FFFF"/>
<path d="M93.5147 91.2865C93.7385 91.5078 93.9381 91.7052 94.1046 91.8732C95.3738 86.5706 98.7406 82.9559 102.216 80.5056C105.522 78.1752 108.959 76.8757 110.826 76.1697C111.035 76.0907 111.225 76.0191 111.392 75.9543C119.551 72.0434 124.225 68.0337 126.763 64.6454C128.823 61.8944 129.459 59.5786 129.448 58.0515C126.861 60.3773 123.52 61.6007 120.35 62.1859C116.866 62.8294 113.535 62.7121 111.515 62.4022L109.911 62.1561L111.375 61.4568C124.987 54.9548 131.841 48.2591 134.917 42.592C137.681 37.5003 137.402 33.2326 136.239 30.6029C134.274 34.0618 131.388 36.9088 128.509 39.0977C125.398 41.4635 122.266 43.0816 120.242 43.8854L118.538 44.5623L119.662 43.1141C120.842 41.5952 125.574 33.9109 129.663 25.029C131.704 20.5936 133.577 15.8781 134.764 11.5007C135.792 7.70861 136.292 4.21738 135.975 1.39624C121.188 25.0478 100.986 39.578 92.5669 43.9553C91.6767 44.4723 90.4878 45.5407 89.1934 47.0448C87.902 48.5453 86.5308 50.45 85.277 52.6011C82.7651 56.9108 80.756 62.1545 80.7537 67.0801C81.0079 74.4401 84.5028 80.6507 87.9542 85.1257C89.6781 87.3608 91.3837 89.1533 92.6547 90.4311C92.9646 90.7426 93.2558 91.0306 93.5147 91.2865Z" stroke="#00FFFF"/>
<circle cx="68.9965" cy="48.9965" r="33.9965" fill="#00FFFF"/>
<path d="M60.1211 40L78.1211 58" stroke="black" stroke-width="3" stroke-linecap="round"/>
<path d="M78 40L60 58" stroke="black" stroke-width="3" stroke-linecap="round"/>
</svg>
