<svg width="45" height="45" viewBox="0 0 45 45" fill="none" xmlns="http://www.w3.org/2000/svg">
<rect x="0.499512" y="0.5" width="44" height="44" rx="7.5" fill="#101012" stroke="#1D1D20"/>
<path d="M24.1556 12C24.5208 12.1133 24.9069 12.1805 25.2427 12.3484C26.4222 12.9444 27.0603 13.9267 27.1274 15.2489C27.1568 15.8323 27.14 16.42 27.1316 17.0077C27.1274 17.503 26.758 17.8682 26.2837 17.8598C25.822 17.8556 25.4652 17.4946 25.4568 17.0077C25.4484 16.4914 25.4568 15.9751 25.4526 15.4588C25.4484 14.3842 24.739 13.6748 23.6645 13.6748C20.9319 13.6748 18.2035 13.6748 15.4709 13.6748C14.3879 13.679 13.6785 14.3884 13.6785 15.4756C13.6785 20.3069 13.6785 25.1425 13.6785 29.9738C13.6785 31.0736 14.3879 31.7788 15.4877 31.7788C18.2035 31.7788 20.9235 31.7788 23.6393 31.7788C24.7516 31.7788 25.4526 31.0736 25.4526 29.9571C25.4526 29.4701 25.4484 28.979 25.4526 28.4921C25.4568 27.9632 25.8094 27.5896 26.2963 27.5938C26.7748 27.598 27.1274 27.9674 27.1274 28.4837C27.1232 29.1805 27.1568 29.8857 27.0813 30.5741C26.9092 32.1482 25.524 33.3906 23.9415 33.4494C23.4252 33.4662 22.9089 33.4578 22.3926 33.4578C20.0756 33.4578 17.7543 33.4578 15.4373 33.4578C13.9304 33.4578 12.6753 32.5931 12.201 31.1953C12.0793 30.8385 12.0163 30.444 12.0163 30.0662C11.9995 25.1677 11.9953 20.2733 12.0037 15.379C12.0079 13.6664 13.1916 12.3064 14.8832 12.0378C14.9168 12.0336 14.9462 12.0126 14.9756 12C18.0356 12 21.0956 12 24.1556 12Z" fill="white"/>
<path d="M31.1319 21.9314C30.6575 21.4613 30.2252 21.0415 29.8054 20.6134C29.4654 20.265 29.4528 19.778 29.7593 19.4422C30.0657 19.1064 30.582 19.0519 30.9052 19.3667C31.6104 20.0467 32.303 20.7309 32.9746 21.4445C33.281 21.7677 33.4069 22.1874 33.4279 22.6492C33.4615 23.3585 33.2012 23.9168 32.7017 24.3995C32.1225 24.9578 31.5684 25.5371 30.9933 26.0995C30.6533 26.4311 30.1958 26.4605 29.8558 26.1877C29.4612 25.8645 29.4319 25.3188 29.8012 24.9326C30.1748 24.5464 30.561 24.1687 30.9388 23.7909C30.9849 23.7447 31.0311 23.6943 31.1067 23.6104C30.9933 23.6104 30.922 23.6104 30.8464 23.6104C27.6185 23.6104 24.3948 23.6104 21.1669 23.6104C20.701 23.6104 20.3862 23.4089 20.2602 23.0437C20.0839 22.5232 20.4407 21.9859 20.9906 21.9398C21.0746 21.9314 21.1585 21.9356 21.2425 21.9356C24.441 21.9356 27.6395 21.9356 30.838 21.9356C30.9136 21.9314 30.9891 21.9314 31.1319 21.9314Z" fill="white"/>
</svg>
