<svg width="60" height="60" viewBox="0 0 60 60" fill="none" xmlns="http://www.w3.org/2000/svg">
<circle cx="30" cy="30" r="29.5" stroke="#292A37"/>
<path d="M25.763 27.1104C27.666 29.9938 29.9987 32.3865 32.8839 34.227C33.375 33.5521 33.8048 32.8773 34.2959 32.2024C35.0325 31.1595 35.6464 30.9754 36.8741 31.4049C38.4088 31.957 39.8821 32.7546 41.2327 33.7362C41.8465 34.1656 42.0921 34.7791 41.9693 35.5153C41.7851 36.5583 41.601 37.6625 41.3554 38.7055C40.9871 40.3006 39.6366 41.1595 37.9791 40.9754C29.2007 40.0552 21.3431 32.6319 19.4401 24.2883C19.2559 23.4908 19.1331 22.6932 19.0103 21.8343C18.8876 20.3006 19.8698 19.0123 21.3431 18.6442C22.3867 18.3988 23.4302 18.2147 24.4738 18.0307C25.2105 17.908 25.8244 18.1534 26.2541 18.7669C27.2363 20.1779 28.0957 21.6503 28.6482 23.3067C29.0165 24.3497 28.771 25.0245 27.9115 25.638C27.1749 26.1288 26.4996 26.6196 25.763 27.1104Z" fill="white"/>
</svg>
