<svg width="60" height="60" viewBox="0 0 60 60" fill="none" xmlns="http://www.w3.org/2000/svg">
<circle cx="30" cy="30" r="29.5" stroke="#292A37"/>
<path d="M37.679 25.8469C34.2057 25.4107 31.2525 26.3671 28.9118 28.9176C26.5878 31.4597 25.9166 34.4883 26.6465 37.8694C26.5207 37.8694 26.42 37.8694 26.3193 37.8694C23.9031 37.8694 21.4869 37.8694 19.0622 37.8694C17.2417 37.8694 16 36.6361 16 34.8239C16 31.4261 16 28.0199 16 24.622C16 22.8015 17.2333 21.5682 19.0539 21.5598C20.0019 21.5514 20.9583 21.5598 21.9567 21.5598C21.9567 21.4424 21.9567 21.3417 21.9567 21.241C21.9567 20.6621 21.9483 20.0916 21.9651 19.5127C22.007 18.1368 23.1313 17.0294 24.5072 17.0126C26.0676 16.9958 27.6281 16.9958 29.1886 17.0126C30.5478 17.021 31.6636 18.1032 31.7223 19.4708C31.7475 20.1503 31.7307 20.8299 31.7307 21.5514C31.8901 21.5514 32.0076 21.5514 32.1334 21.5514C33.1402 21.5598 34.1469 21.5179 35.1453 21.6018C36.5464 21.7108 37.6454 22.9357 37.6874 24.3452C37.6874 24.8402 37.679 25.3436 37.679 25.8469ZM29.348 21.5346C29.348 20.9138 29.3396 20.3265 29.348 19.7476C29.3564 19.4708 29.2306 19.3869 28.9621 19.3953C27.5526 19.4037 26.1432 19.4037 24.7253 19.3953C24.4233 19.3953 24.3142 19.5043 24.331 19.798C24.3478 20.1755 24.331 20.553 24.331 20.9306C24.331 21.1319 24.331 21.3417 24.331 21.543C26.0341 21.5346 27.6701 21.5346 29.348 21.5346Z" fill="white"/>
<path d="M28.752 35.4531C28.752 31.4009 32.0155 28.1289 36.0678 28.1289C40.12 28.1289 43.392 31.3925 43.4004 35.4447C43.4004 39.497 40.1368 42.7689 36.0846 42.7773C32.0323 42.7689 28.752 39.497 28.752 35.4531ZM37.2591 33.3641C37.2591 32.8607 37.2675 32.3573 37.2591 31.8539C37.2423 31.1156 36.7641 30.6206 36.0762 30.6206C35.3966 30.6206 34.8932 31.1156 34.8848 31.8455C34.8764 33.104 34.8848 34.3541 34.8848 35.6125C34.8848 35.9901 35.0191 36.3005 35.2875 36.569C35.7993 37.0723 36.3111 37.5925 36.8229 38.0959C37.343 38.616 38.0813 38.6412 38.5595 38.163C39.0545 37.6764 39.0293 36.9381 38.5008 36.4012C38.1652 36.0572 37.8044 35.7384 37.4856 35.3776C37.3766 35.2518 37.2927 35.0588 37.2843 34.891C37.2423 34.396 37.2591 33.8842 37.2591 33.3641Z" fill="white"/>
</svg>
