<svg width="60" height="60" viewBox="0 0 60 60" fill="none" xmlns="http://www.w3.org/2000/svg">
<circle cx="30" cy="30" r="29.5" stroke="#292A37"/>
<path d="M42.5 25.3688C42.5 29.2673 42.5 33.1724 42.5 37.0709C42.4933 37.0843 42.4733 37.0976 42.4733 37.1109C42.1341 38.4614 41.3158 39.1 39.9187 39.1C33.1395 39.1 26.3604 39.1 19.5746 39.1C19.4948 39.1 19.4083 39.1 19.3285 39.1C17.9913 39.0535 17.0067 38.0489 17 36.7117C17 32.9928 17 29.2739 17 25.5617C17 25.5018 17.0133 25.442 17.02 25.3688C17.0665 25.3954 17.0865 25.402 17.1064 25.4153C20.5526 27.7105 23.992 30.0057 27.4382 32.3009C28.9816 33.3321 30.5117 33.3321 32.0618 32.3009C35.142 30.2519 38.2156 28.1962 41.2958 26.1471C41.6883 25.8877 42.0941 25.6282 42.5 25.3688Z" fill="white"/>
<path d="M42.5008 22.6811C42.4076 22.9339 42.3544 23.2199 42.2081 23.4328C42.0018 23.7255 41.7623 24.0249 41.4696 24.2245C38.0102 26.5529 34.5375 28.8681 31.0581 31.17C30.1999 31.7354 29.2951 31.7354 28.4369 31.17C24.9575 28.8614 21.4781 26.5396 18.0054 24.2178C17.1672 23.659 16.8279 22.6944 17.0873 21.7297C17.3601 20.7451 18.205 20.0732 19.2561 20.0067C19.3293 20 19.4025 20 19.4757 20C26.328 20 33.1736 20 40.0193 20C41.1503 20 42.0417 20.6054 42.3744 21.61C42.421 21.7497 42.4542 21.896 42.5008 22.0357C42.5008 22.2486 42.5008 22.4615 42.5008 22.6811Z" fill="white"/>
</svg>
