<svg width="60" height="60" viewBox="0 0 60 60" fill="none" xmlns="http://www.w3.org/2000/svg">
<circle cx="30" cy="30" r="29.5" stroke="#292A37"/>
<path d="M30.5005 44C29.9369 43.3419 29.3876 42.7189 28.8572 42.0827C26.8965 39.7003 25.04 37.2565 23.4345 34.6548C22.2316 32.7024 21.1565 30.6973 20.4698 28.5343C19.6552 25.9764 19.892 23.5063 21.2418 21.159C22.4494 19.0618 24.2728 17.5569 26.6692 16.6838C28.8903 15.8722 31.1635 15.7888 33.451 16.403C35.5774 16.9778 37.3297 18.0878 38.7126 19.6892C39.9913 21.1678 40.7207 22.8613 40.948 24.7392C41.0995 26.0203 40.9101 27.2795 40.5075 28.508C39.8256 30.5832 38.7931 32.5093 37.6423 34.3871C35.6059 37.704 33.2284 40.8059 30.6805 43.8026C30.6379 43.8552 30.5858 43.9035 30.5005 44ZM26.0251 25.6342C26.0109 27.9157 27.9905 29.7672 30.4674 29.7891C32.9395 29.811 34.9618 27.9683 34.9854 25.6693C35.0091 23.3878 32.9916 21.5056 30.5242 21.4969C28.0426 21.4881 26.0393 23.3308 26.0251 25.6342Z" fill="white"/>
</svg>
