<svg width="60" height="60" viewBox="0 0 60 60" fill="none" xmlns="http://www.w3.org/2000/svg">
<rect x="59.5" y="0.500015" width="59" height="59" rx="29.5" transform="rotate(90 59.5 0.500015)" fill="#080808" stroke="#1D1D20"/>
<path d="M29.5841 41.7133C27.6304 41.7133 25.6689 41.7441 23.7152 41.7056C21.8307 41.6671 20.1692 41.021 18.8462 39.6288C17.6848 38.4058 17.0771 36.9136 17.0463 35.2521C16.9925 31.9908 16.9771 28.7217 17.0463 25.4604C17.1156 22.0759 19.6231 19.4376 22.9998 19.0761C23.4306 19.0299 23.8613 19.0069 24.2921 19.0069C28.0149 19.0069 31.7378 18.9838 35.4607 19.0222C39.1143 19.0607 41.8142 21.5836 42.1449 25.2065C42.1988 25.7757 42.1757 26.3603 42.2065 26.9295C42.2142 27.0372 42.2911 27.1756 42.3834 27.2372C43.0449 27.6833 43.4141 28.2833 43.4218 29.0832C43.4295 29.937 43.4295 30.7908 43.4218 31.6446C43.4141 32.4369 43.0603 33.0445 42.3911 33.4599C42.2372 33.5599 42.1911 33.6522 42.1911 33.8291C42.2142 34.906 42.1757 35.9751 41.8526 37.0212C41.0758 39.5749 38.922 41.3748 36.253 41.6441C35.8068 41.6902 35.353 41.7133 34.9069 41.7133C33.13 41.721 31.3532 41.7133 29.5841 41.7133ZM40.345 26.9064C40.3912 25.868 40.3527 24.8835 39.9989 23.9297C39.2989 22.0605 37.5913 20.876 35.453 20.8606C31.7609 20.8375 28.0611 20.8452 24.369 20.8529C23.9459 20.8529 23.5229 20.8683 23.1075 20.9298C21.2922 21.1991 19.9539 22.1144 19.2539 23.8527C18.9539 24.5912 18.8616 25.368 18.8616 26.1603C18.8693 28.9602 18.8616 31.7677 18.8616 34.5675C18.8616 34.7752 18.8616 34.9906 18.877 35.1983C19.0616 37.1982 19.9539 38.7135 21.8768 39.498C22.6153 39.798 23.3921 39.8826 24.1844 39.8826C27.7919 39.8749 31.3994 39.8826 35.0069 39.8749C35.3684 39.8749 35.7376 39.8595 36.0991 39.8057C39.2528 39.3519 40.6219 36.7828 40.3143 33.8137C39.8604 33.8137 39.3989 33.8445 38.9374 33.806C38.4913 33.7676 38.0375 33.7214 37.6221 33.5753C36.053 33.0215 35.0453 31.5908 35.3145 29.8447C35.5838 28.0833 37.0221 26.9064 38.822 26.9064C39.3143 26.9064 39.8143 26.9064 40.345 26.9064ZM41.5757 30.3601C41.5757 29.9755 41.5757 29.5909 41.5757 29.214C41.5757 28.8602 41.4911 28.7756 41.1296 28.7756C40.3527 28.7756 39.5758 28.7679 38.799 28.7756C38.622 28.7756 38.4298 28.7986 38.2605 28.8448C37.5606 29.0525 37.0683 29.7601 37.1221 30.4524C37.1837 31.1985 37.8221 31.8677 38.5836 31.9061C39.4528 31.9523 40.322 31.9369 41.1988 31.9369C41.4604 31.9369 41.5757 31.7908 41.568 31.5369C41.5757 31.1523 41.5757 30.7524 41.5757 30.3601Z" fill="white"/>
<path d="M27.738 27.591C26.5303 27.591 25.3227 27.591 24.1074 27.591C23.7151 27.591 23.4228 27.4218 23.2459 27.0757C23.0844 26.7449 23.1151 26.4218 23.3305 26.1219C23.5151 25.8603 23.7843 25.745 24.0997 25.745C26.538 25.745 28.9763 25.745 31.4147 25.745C31.9608 25.745 32.3531 26.1449 32.3531 26.6603C32.3531 27.1833 31.9608 27.5833 31.4147 27.5833C30.1994 27.5987 28.9687 27.591 27.738 27.591Z" fill="white"/>
</svg>
