<svg width="60" height="60" viewBox="0 0 60 60" fill="none" xmlns="http://www.w3.org/2000/svg">
<rect x="59.5" y="0.50003" width="59" height="59" rx="29.5" transform="rotate(90 59.5 0.50003)" fill="#080808" stroke="#1D1D20"/>
<path d="M27.7662 46C27.7662 44.8777 27.7662 43.7669 27.7662 42.6332C25.5592 42.1293 23.6119 41.1444 22 39.4038C22.9412 38.4533 23.8824 37.5257 24.7803 36.621C25.2671 36.976 25.6999 37.3653 26.1867 37.6516C28.253 38.8655 30.4058 39.0602 32.6236 38.1899C33.4133 37.8807 34.03 37.3424 34.0949 36.369C34.1814 35.2697 33.8136 34.3764 32.9049 33.7695C32.061 33.1969 31.109 32.8992 30.1786 32.5556C28.7723 32.0403 27.3551 31.5822 25.992 30.9752C24.7046 30.4027 23.6444 29.4751 22.9412 28.1696C22.2705 26.9328 22.0541 25.5929 22.2055 24.2072C22.4976 21.6191 23.9689 20.0044 26.1434 19.0081C26.587 18.802 27.0522 18.6646 27.5282 18.5272C27.7337 18.4699 27.7986 18.3897 27.7986 18.1607C27.7878 17.2216 27.7986 16.2826 27.7986 15.3436C27.7986 15.2405 27.7986 15.126 27.7986 15C29.1076 15 30.3734 15 31.6716 15C31.6716 15.1145 31.6824 15.2176 31.6824 15.3321C31.6824 16.1681 31.6932 17.0041 31.6716 17.84C31.6608 18.1263 31.7365 18.2294 32.0178 18.2638C33.6405 18.4813 35.1767 18.9738 36.5939 19.8556C36.6696 19.9014 36.7562 19.9586 36.8427 20.0273C36.1395 21.1954 35.458 22.3291 34.7656 23.4629C34.3762 23.2796 34.0083 23.0735 33.6189 22.9132C31.8663 22.2032 30.0813 22.0658 28.2638 22.5811C27.8094 22.7071 27.3659 22.9361 26.9656 23.188C25.635 24.0584 25.808 26.1655 27.0738 26.9328C28.0691 27.5397 29.1509 27.8718 30.2219 28.2612C31.4985 28.7307 32.7859 29.1773 34.03 29.727C35.0685 30.1851 35.9448 30.918 36.6588 31.857C37.4053 32.8419 37.8164 33.9756 37.9462 35.2239C38.076 36.4492 37.9895 37.6402 37.481 38.7739C36.7778 40.3314 35.6094 41.3506 34.1273 41.9804C33.4241 42.2782 32.6777 42.4499 31.942 42.6446C31.7148 42.7019 31.6716 42.7935 31.6824 42.9996C31.6824 43.9959 31.6716 44.9922 31.6716 46C30.3626 46 29.0644 46 27.7662 46Z" fill="white"/>
</svg>
