<svg width="60" height="60" viewBox="0 0 60 60" fill="none" xmlns="http://www.w3.org/2000/svg">
<rect x="59.5" y="0.5" width="59" height="59" rx="29.5" transform="rotate(90 59.5 0.5)" fill="#080808" stroke="#1D1D20"/>
<path d="M18.3651 31.2756C18.2118 31.2756 18.0925 31.2842 17.9817 31.2756C17.4535 31.2416 17.019 30.8326 17.019 30.3129C17.0105 28.6346 16.9764 26.9562 17.0275 25.2779C17.0787 23.6762 18.4333 22.4749 20.1031 22.4323C20.5461 22.4238 20.9977 22.4323 21.4492 22.4323C21.3385 22.0489 21.2021 21.6911 21.1425 21.3248C20.8614 19.6464 21.7644 17.9851 23.3065 17.3206C24.9167 16.622 26.7399 17.0905 27.7878 18.4792C28.546 19.476 29.2957 20.4813 30.054 21.4866C30.1136 21.5718 30.1818 21.6485 30.267 21.7593C30.7696 21.0947 31.2552 20.4473 31.7323 19.8083C32.0646 19.3653 32.3969 18.9222 32.7291 18.4877C33.7344 17.1757 35.4298 16.6816 36.9804 17.2354C38.5054 17.7891 39.5107 19.263 39.4255 20.8988C39.4 21.41 39.2296 21.9041 39.1103 22.4494C39.4766 22.4494 39.8856 22.4494 40.2945 22.4494C41.8536 22.4579 43.0549 23.3439 43.4127 24.7667C43.4808 25.0478 43.5064 25.3545 43.5149 25.6527C43.5234 27.1181 43.5234 28.5835 43.5234 30.0488C43.5234 30.9093 43.1827 31.2671 42.3222 31.3012C42.2796 31.3012 42.2455 31.3097 42.1859 31.3182C42.1773 31.429 42.1688 31.5312 42.1688 31.6335C42.1773 34.053 42.1773 36.4811 42.1859 38.9007C42.2029 41.6014 39.9963 43.7142 37.2956 43.5524C37.1508 43.5438 36.9974 43.5353 36.8526 43.5353C32.4565 43.5353 28.0519 43.5268 23.6558 43.5438C22.8975 43.5438 22.1478 43.5779 21.4236 43.3138C19.5153 42.6322 18.314 40.8942 18.331 38.8581C18.3481 36.4385 18.3481 34.0104 18.3566 31.5909C18.3651 31.4971 18.3651 31.412 18.3651 31.2756ZM20.4013 31.2927C20.4013 31.446 20.4013 31.5738 20.4013 31.6931C20.4013 33.84 20.4013 35.987 20.4013 38.1339C20.4013 38.4747 20.4183 38.8155 20.4524 39.1563C20.5717 40.4171 21.2533 41.1754 22.4716 41.3969C22.8038 41.4565 23.1446 41.4821 23.4854 41.4821C25.3001 41.4906 27.1232 41.4821 28.9379 41.4821C29.0402 41.4821 29.1424 41.4821 29.2276 41.4821C29.2276 38.0572 29.2276 34.675 29.2276 31.2927C26.2968 31.2927 23.3746 31.2927 20.4013 31.2927ZM31.3149 31.2927C31.3149 34.7005 31.3149 38.0828 31.3149 41.4821C31.4001 41.4821 31.4597 41.4821 31.5279 41.4821C33.4022 41.4821 35.268 41.4821 37.1423 41.4821C37.4319 41.4821 37.7131 41.4565 38.0028 41.4139C39.1529 41.2435 39.8345 40.5961 40.0389 39.4544C40.1071 39.0796 40.1412 38.6962 40.1412 38.3128C40.1497 36.0807 40.1497 33.8486 40.1412 31.6164C40.1412 31.5142 40.1326 31.412 40.1241 31.2927C37.1764 31.2927 34.2541 31.2927 31.3149 31.2927ZM29.2361 24.5111C29.185 24.4941 29.1679 24.477 29.1509 24.477C26.1265 24.477 23.0935 24.4685 20.069 24.477C19.4556 24.477 19.0552 24.9286 19.0467 25.5505C19.0382 26.658 19.0467 27.7571 19.0467 28.8646C19.0467 28.9754 19.0467 29.0946 19.0467 29.2139C22.463 29.2139 25.8453 29.2139 29.2361 29.2139C29.2361 27.6463 29.2361 26.0872 29.2361 24.5111ZM31.3149 24.477C31.3149 26.0957 31.3149 27.6633 31.3149 29.2309C34.7142 29.2309 38.0879 29.2309 41.4958 29.2309C41.4958 29.1117 41.4958 29.0094 41.4958 28.9072C41.4958 27.8422 41.4958 26.7858 41.4958 25.7209C41.4958 24.8604 41.1124 24.4855 40.2519 24.4855C37.3979 24.4855 34.5353 24.4855 31.6812 24.4855C31.5619 24.477 31.4427 24.477 31.3149 24.477ZM32.3372 22.4068C32.4565 22.4153 32.5076 22.4323 32.5673 22.4323C33.6066 22.4323 34.6546 22.4323 35.6939 22.4323C35.8388 22.4323 35.9921 22.4153 36.137 22.3812C36.8611 22.1938 37.3723 21.5718 37.4064 20.8477C37.449 20.0979 37.006 19.4164 36.2988 19.1523C35.6002 18.8882 34.8505 19.0926 34.3819 19.689C33.7941 20.4473 33.2318 21.214 32.6525 21.9808C32.5587 22.1086 32.465 22.2364 32.3372 22.4068ZM28.2052 22.4153C28.0348 22.1852 27.907 22.0149 27.7707 21.8359C27.2255 21.1118 26.6887 20.3876 26.135 19.672C25.6579 19.0586 24.857 18.8711 24.1584 19.1693C23.4683 19.4675 23.0424 20.2172 23.1361 20.9499C23.2383 21.6996 23.8432 22.3727 24.5674 22.4068C25.7601 22.4494 26.9529 22.4153 28.2052 22.4153Z" fill="white"/>
</svg>
