<svg width="36" height="36" viewBox="0 0 36 36" fill="none" xmlns="http://www.w3.org/2000/svg">
<circle cx="18" cy="18" r="17.5" fill="#080808" stroke="#1D1D20"/>
<path d="M11 21.0601C11.032 20.8681 11.064 20.6697 11.1088 20.4777C11.2688 19.7673 11.6144 19.1592 12.1265 18.6408C12.8305 17.924 13.5473 17.2072 14.2642 16.4967C14.7186 16.0487 15.4162 16.2343 15.5698 16.8359C15.6274 17.0664 15.5826 17.2776 15.4418 17.4632C15.397 17.5208 15.3458 17.5784 15.2946 17.6296C14.6098 18.3208 13.9185 19.0056 13.2337 19.6969C12.4913 20.4457 12.3185 21.5338 12.7985 22.4362C13.5281 23.8059 15.3522 24.0683 16.4659 22.961C17.1699 22.2634 17.8675 21.5594 18.5716 20.8617C18.866 20.5673 19.2116 20.5097 19.538 20.6953C19.9412 20.9193 20.05 21.4698 19.762 21.8282C19.7428 21.8538 19.7236 21.8794 19.698 21.905C18.9364 22.6666 18.1875 23.4282 17.4131 24.1771C16.7987 24.7659 16.0434 25.0795 15.1986 25.1691C15.1602 25.1755 15.1282 25.1819 15.0898 25.1883C14.917 25.1883 14.7378 25.1883 14.565 25.1883C14.4178 25.1691 14.2706 25.1499 14.1297 25.1179C12.5617 24.7659 11.544 23.8187 11.1152 22.2634C11.0576 22.0586 11.0384 21.8474 11 21.6426C11 21.4442 11 21.2521 11 21.0601Z" fill="white"/>
<path d="M25.1575 14.8263C25.1447 15.8951 24.767 16.8104 24.0182 17.572C23.3206 18.2824 22.6165 18.9865 21.9061 19.6841C21.4453 20.1385 20.7413 19.9657 20.5876 19.3577C20.53 19.1273 20.5748 18.9161 20.7157 18.7305C20.7605 18.6728 20.8117 18.6152 20.8629 18.564C21.5477 17.8728 22.2389 17.188 22.9238 16.4967C23.6854 15.7287 23.8454 14.5895 23.3206 13.6998C22.5333 12.3686 20.7797 12.1445 19.6788 13.239C18.9748 13.9366 18.2771 14.6407 17.5731 15.3383C17.2851 15.6263 16.9395 15.6775 16.6195 15.4983C16.2162 15.2743 16.1074 14.7239 16.3955 14.3654C16.4147 14.3398 16.4339 14.3142 16.4595 14.2886C17.2403 13.5142 17.9955 12.7078 18.8084 11.9653C19.6724 11.1717 20.7221 10.8709 21.8805 11.0501C23.4358 11.2997 24.4662 12.2021 24.9783 13.687C25.0999 14.0454 25.1255 14.4359 25.1959 14.8071C25.1831 14.8199 25.1703 14.8199 25.1575 14.8263Z" fill="white"/>
<path d="M15.877 21.0281C15.6082 21.0153 15.3713 20.8809 15.2305 20.5993C15.0897 20.3177 15.1281 20.0425 15.3137 19.7929C15.3521 19.7481 15.3905 19.7033 15.4353 19.6585C16.837 18.2504 18.2451 16.8488 19.6467 15.4407C19.986 15.1015 20.4212 15.0631 20.7476 15.3447C21.0548 15.6135 21.0996 16.0679 20.85 16.3879C20.8116 16.4391 20.7668 16.4839 20.722 16.5351C19.3267 17.9368 17.9251 19.3321 16.5298 20.7337C16.357 20.9065 16.165 21.0281 15.877 21.0281Z" fill="white"/>
</svg>
