<svg width="23" height="23" viewBox="0 0 23 23" fill="none" xmlns="http://www.w3.org/2000/svg">
<path d="M0 15.7325C0.0500453 15.4322 0.100091 15.1219 0.170154 14.8217C0.420381 13.7107 0.96087 12.7598 1.7616 11.9491C2.86259 10.8281 3.98361 9.70704 5.10462 8.59604C5.81527 7.8954 6.90625 8.18566 7.14647 9.12652C7.23655 9.48684 7.16649 9.81714 6.94629 10.1074C6.87623 10.1975 6.79615 10.2876 6.71608 10.3676C5.64511 11.4486 4.56413 12.5196 3.49316 13.6006C2.33211 14.7716 2.06187 16.4732 2.81255 17.8844C3.95358 20.0264 6.80616 20.4368 8.54774 18.7052C9.64874 17.6142 10.7397 16.5132 11.8407 15.4222C12.3011 14.9618 12.8416 14.8717 13.3521 15.162C13.9827 15.5123 14.1528 16.3731 13.7024 16.9336C13.6724 16.9736 13.6424 17.0137 13.6023 17.0537C12.4112 18.2448 11.2402 19.4359 10.0291 20.6069C9.06821 21.5277 7.88714 22.0182 6.56594 22.1583C6.50589 22.1683 6.45585 22.1783 6.39579 22.1883C6.12555 22.1883 5.84529 22.1883 5.57505 22.1883C5.34484 22.1583 5.11463 22.1283 4.89443 22.0782C2.44221 21.5277 0.85077 20.0464 0.180163 17.6142C0.0900816 17.2939 0.0600544 16.9636 0 16.6433C0 16.333 0 16.0328 0 15.7325Z" fill="black"/>
<path d="M22.1399 5.98369C22.1199 7.6552 21.5294 9.0865 20.3583 10.2776C19.2673 11.3886 18.1663 12.4896 17.0553 13.5806C16.3347 14.2912 15.2337 14.021 14.9934 13.0701C14.9034 12.7098 14.9734 12.3795 15.1936 12.0892C15.2637 11.9991 15.3438 11.9091 15.4238 11.829C16.4948 10.748 17.5758 9.67703 18.6468 8.59605C19.8378 7.39497 20.0881 5.61335 19.2673 4.22209C18.0362 2.14021 15.2937 1.78989 13.5722 3.50144C12.4712 4.59243 11.3802 5.69343 10.2792 6.78441C9.82877 7.23482 9.28828 7.31489 8.78783 7.03464C8.15726 6.68432 7.9871 5.82354 8.43751 5.26304C8.46754 5.223 8.49757 5.18296 8.5376 5.14293C9.75871 3.93183 10.9398 2.67069 12.2109 1.50964C13.5622 0.268514 15.2036 -0.201912 17.0153 0.0783413C19.4475 0.468695 21.0589 1.87997 21.8597 4.20208C22.0498 4.76258 22.0899 5.37314 22.2 5.95366C22.18 5.97368 22.1599 5.97368 22.1399 5.98369Z" fill="black"/>
<path d="M7.62679 15.6824C7.20641 15.6624 6.83608 15.4522 6.61588 15.0118C6.39568 14.5714 6.45573 14.141 6.74599 13.7507C6.80605 13.6806 6.8661 13.6105 6.93617 13.5405C9.12815 11.3385 11.3301 9.1465 13.5221 6.94451C14.0526 6.41403 14.7332 6.35397 15.2437 6.79437C15.7241 7.21475 15.7942 7.9254 15.4038 8.42585C15.3438 8.50592 15.2737 8.57599 15.2037 8.65606C13.0217 10.848 10.8297 13.03 8.64772 15.222C8.37747 15.4922 8.0772 15.6824 7.62679 15.6824Z" fill="black"/>
</svg>
