<svg width="325" height="57" viewBox="0 0 325 57" fill="none" xmlns="http://www.w3.org/2000/svg">
<path d="M29.6966 51.2394C28.8706 52.2987 28.049 53.1915 27.3591 53.8978C26.2518 51.3194 24.3752 49.4738 22.5105 48.1736C20.3378 46.6587 18.0767 45.815 16.9285 45.3866C16.8196 45.3459 16.7207 45.309 16.6328 45.2757C11.7387 42.9496 9.03916 40.6157 7.62525 38.7482C7.48586 38.5641 7.35962 38.3857 7.24537 38.2131C8.30141 38.6608 9.38892 38.9558 10.4215 39.1444C12.7128 39.5629 14.9024 39.4896 16.268 39.2823L21.1312 38.5442L16.6837 36.443C8.40588 32.5323 4.41864 28.5871 2.68582 25.4295C1.91079 24.0172 1.5809 22.7587 1.51347 21.7C2.55488 22.9171 3.73019 23.9607 4.88335 24.8278C6.89327 26.3392 8.92174 27.379 10.2676 27.9076L15.4035 29.9252L11.9958 25.5852C11.3475 24.7595 8.4709 20.1595 5.96554 14.7767C4.72053 12.1019 3.59399 9.28945 2.88559 6.70533C2.75059 6.2129 2.63271 5.73546 2.53258 5.27452C11.4192 17.6684 22.318 25.3603 27.2161 27.8867C27.5972 28.1118 28.2193 28.6443 28.9725 29.5098C29.7191 30.3678 30.5232 31.4707 31.2622 32.7246C32.7534 35.2548 33.8819 38.2327 33.889 40.9368C33.7385 45.0633 31.7499 48.6066 29.6966 51.2394Z" stroke="#00FFFF" stroke-width="3"/>
<path d="M54.6481 51.2458C55.4552 52.2923 56.258 53.1763 56.9352 53.8785C58.0309 51.3147 59.8805 49.476 61.7216 48.1781C63.8726 46.6616 66.1115 45.8169 67.2471 45.3885C67.3544 45.348 67.4519 45.3113 67.5384 45.278C72.3753 42.9535 75.0433 40.6213 76.4411 38.7546C76.5774 38.5725 76.7011 38.3959 76.8131 38.2251C75.7773 38.6656 74.7118 38.9569 73.6993 39.1439C71.4294 39.5631 69.2602 39.4897 67.9063 39.2819L63.0955 38.5437L67.4873 36.4458C75.6704 32.5369 79.6124 28.5936 81.3264 25.4356C82.0849 24.0381 82.4129 22.7902 82.4848 21.737C81.4638 22.9359 80.3149 23.9655 79.1871 24.823C77.1981 26.3353 75.1903 27.376 73.8571 27.9056L68.7448 29.9361L72.1186 25.5915C72.7598 24.7658 75.6049 20.1656 78.0829 14.7825C79.3143 12.1074 80.4287 9.29444 81.1296 6.70938C81.2577 6.23687 81.3703 5.77806 81.4667 5.3343C72.6866 17.689 61.9367 25.3595 57.0976 27.8833C56.7231 28.1071 56.109 28.6382 55.3642 29.5036C54.626 30.3613 53.8306 31.4643 53.0997 32.7184C51.6249 35.2486 50.5073 38.2289 50.5004 40.9371C50.6493 45.0685 52.6181 48.6138 54.6481 51.2458Z" stroke="#00FFFF" stroke-width="3"/>
<circle cx="41.9256" cy="29.7635" r="20.7573" fill="#00FFFF"/>
<path d="M42.6753 40.3485C42.2549 40.3485 41.8305 40.3485 41.4102 40.3485C41.1612 40.3159 40.9123 40.2914 40.6633 40.2547C39.3737 40.071 38.1535 39.6751 37.0108 39.0467C36.9251 38.9977 36.7905 38.9895 36.6925 39.0181C36.1905 39.165 35.6967 39.3323 35.1989 39.4915C34.3337 39.7813 33.4644 40.0628 32.5952 40.3485C32.485 40.3485 32.3789 40.3485 32.2687 40.3485C31.9422 40.2383 31.7259 40.022 31.6157 39.6955C31.6157 39.5854 31.6157 39.4793 31.6157 39.3691C31.6239 39.3609 31.6402 39.3527 31.6443 39.3405C32.0728 37.9978 32.5013 36.6511 32.938 35.3085C32.9869 35.1615 32.9788 35.0473 32.9053 34.9085C32.334 33.876 31.9504 32.7823 31.7667 31.6151C31.7096 31.2642 31.6647 30.9091 31.6157 30.5541C31.6157 30.1337 31.6157 29.7093 31.6157 29.289C31.628 29.2318 31.6443 29.1706 31.6484 29.1135C31.7504 27.6565 32.1381 26.2731 32.84 24.9957C34.4643 22.0533 36.9333 20.2536 40.243 19.6169C40.6429 19.5394 41.047 19.5068 41.451 19.4537C41.8591 19.4537 42.2672 19.4537 42.6753 19.4537C42.7283 19.4659 42.7814 19.4823 42.8344 19.4864C44.2995 19.5843 45.6871 19.972 46.9685 20.678C49.9109 22.3063 51.7147 24.7754 52.3473 28.081C52.4248 28.4809 52.4575 28.8849 52.5105 29.289C52.5105 29.6971 52.5105 30.1052 52.5105 30.5133C52.4983 30.5704 52.482 30.6316 52.4779 30.6887C52.3759 32.1457 51.9922 33.5291 51.2862 34.8065C49.662 37.7489 47.193 39.5486 43.8833 40.1853C43.4833 40.2587 43.0793 40.2955 42.6753 40.3485ZM33.7011 38.2672C34.5867 37.9815 35.4356 37.7448 36.2599 37.4347C36.8231 37.2225 37.272 37.3041 37.7944 37.5979C39.6921 38.6671 41.7285 38.9732 43.8629 38.5325C46.0788 38.0713 47.8623 36.9001 49.1886 35.0718C50.7149 32.9741 51.2046 30.6275 50.6822 28.0932C50.2333 25.9058 49.0702 24.151 47.2787 22.8205C45.3402 21.3799 43.1528 20.8453 40.7735 21.1922C38.3739 21.5432 36.4395 22.7267 34.9948 24.6733C33.4318 26.775 32.9461 29.1339 33.4399 31.6968C33.6317 32.6844 34.0031 33.6108 34.5296 34.4678C34.7132 34.7698 34.7499 35.0677 34.6275 35.3982C34.5296 35.6594 34.452 35.9247 34.3663 36.19C34.146 36.8674 33.9297 37.5449 33.7011 38.2672Z" fill="black"/>
<path d="M37.9863 30.9213C37.4272 30.9254 36.9579 30.4561 36.9619 29.897C36.966 29.3461 37.4231 28.8849 37.974 28.8808C38.5331 28.8767 39.0024 29.3461 38.9984 29.9052C38.9984 30.4561 38.5413 30.9173 37.9863 30.9213Z" fill="black"/>
<path d="M43.0835 29.9011C43.0835 30.4602 42.6142 30.9254 42.0551 30.9213C41.5042 30.9172 41.0471 30.4561 41.0471 29.9051C41.0471 29.346 41.5164 28.8808 42.0755 28.8849C42.6265 28.889 43.0795 29.346 43.0835 29.9011Z" fill="black"/>
<path d="M47.1646 29.8929C47.1686 30.452 46.7034 30.9213 46.1402 30.9173C45.5893 30.9132 45.1281 30.4561 45.1241 29.9052C45.12 29.3461 45.5852 28.8767 46.1484 28.8808C46.6993 28.8849 47.1605 29.342 47.1646 29.8929Z" fill="black"/>
<path d="M91.2004 38.1V21.8H96.7004L103.7 31.5L110.7 21.8H116.3V38H111.4V27.7L105.3 36.1H102.2L96.1004 27.7V38.1H91.2004Z" fill="#00FFFF"/>
<path d="M134.701 21.8H139.601V34.4L135.901 38.1H123.501L119.801 34.4V21.8H124.701V34.4H134.601V21.8H134.701Z" fill="#00FFFF"/>
<path d="M143.1 38.1V21.8H148.6L155.6 31.5L162.6 21.8H168.2V38H163.3V27.7L157.2 36.1H154L147.9 27.7V38.1H143.1Z" fill="#00FFFF"/>
<path d="M171.9 21.8H189.1L192.8 26.8L190.5 29.9L192.8 33L189.1 38H171.9V21.8ZM186.3 28.3L187.5 26.8L186.3 25.5H176.9V28.4H186.3V28.3ZM186.3 34.4L187.5 33.1L186.3 31.6H176.9V34.4H186.3Z" fill="#00FFFF"/>
<path d="M200.6 34.4H214.5L210.9 38H195.7V21.8L200.6 19V34.4Z" fill="#00FFFF"/>
<path d="M216.7 21.8H236.2L232.6 25.4H221.7V28.3H233.9L230.6 31.6H221.7V34.4H235.6L232 38H216.8V21.8H216.7Z" fill="#00FFFF"/>
<path d="M242.8 25.5V34.5H256.7L253.1 38.1H241.6L237.9 34.5V25.5L241.6 21.8H257.3L253.7 25.4H242.8V25.5Z" fill="#00FFFF"/>
<path d="M259.6 21.8H264.5V28.3H274.2V21.8H279.1V38.1H274.2V31.6H264.5V38.1H259.6V21.8Z" fill="#00FFFF"/>
<path d="M282.6 38.1V25.5L286.3 21.9H298.6L302.3 25.5V38.1H297.4V33.5H287.5V38.2L282.6 38.1ZM287.6 25.5V29.9H297.5V25.5H287.6Z" fill="#00FFFF"/>
<path d="M302.5 21.8H324.2L320.6 25.4H315.8V38H310.9V25.5H306.1L302.5 21.8Z" fill="#00FFFF"/>
</svg>
