<svg width="35" height="49" viewBox="0 0 35 49" fill="none" xmlns="http://www.w3.org/2000/svg">
<path d="M3.46919 48.1648C2.5106 47.968 1.65471 47.5974 0.992827 46.8215C0.273883 45.9877 0 45.0149 0 43.9264C0 33.7702 0 23.614 0 13.4695C0 10.6322 0 7.79499 0 4.96933C0 3.27857 0.69612 1.96996 2.21389 1.25197C2.77307 0.985614 3.43495 0.858228 4.0626 0.846647C10.7271 0.811906 17.3916 0.835067 24.0675 0.823486C24.5126 0.823486 24.8549 0.974034 25.163 1.28671C28.2784 4.45978 31.4053 7.63286 34.5321 10.7944C34.8516 11.1186 35 11.4892 35 11.9524C34.9886 22.6413 34.9886 33.3417 35 44.0306C35 46.1962 33.5507 47.8522 31.6563 48.1185C31.6107 48.1301 31.5765 48.1533 31.5308 48.1764C22.1731 48.1648 12.8155 48.1648 3.46919 48.1648ZM23.3257 2.79218C23.0975 2.79218 22.9263 2.79218 22.7665 2.79218C16.6042 2.79218 10.4418 2.79218 4.26801 2.79218C2.68177 2.79218 1.94001 3.54492 1.94001 5.17778C1.94001 18.0554 1.94001 30.9445 1.94001 43.8221C1.94001 45.455 2.68177 46.2077 4.26801 46.2077C13.0893 46.2077 21.9107 46.2077 30.732 46.2077C32.3068 46.2077 33.0486 45.4434 33.0486 43.8569C33.0486 33.6428 33.0486 23.4288 33.0486 13.2147C33.0486 13.0526 33.0486 12.8789 33.0486 12.6704C32.8318 12.6704 32.672 12.6704 32.5122 12.6704C30.8005 12.6704 29.0773 12.682 27.3655 12.6704C25.7222 12.6588 24.4441 11.9524 23.748 10.4238C23.4855 9.84475 23.3714 9.14991 23.3485 8.5014C23.2915 6.61377 23.3257 4.73772 23.3257 2.79218ZM25.2657 4.35556C25.2657 4.42504 25.2657 4.52927 25.2657 4.62191C25.2657 5.91894 25.2543 7.20438 25.2657 8.5014C25.2771 9.87949 26.0646 10.6785 27.4226 10.6785C28.6779 10.6901 29.9446 10.6785 31.1999 10.6785C31.314 10.6785 31.4281 10.667 31.4737 10.6554C29.4196 8.58247 27.3541 6.4748 25.2657 4.35556Z" fill="white"/>
<path d="M23.289 2.88232C23.289 4.8203 23.2551 6.68906 23.3117 8.55782C23.3344 9.20381 23.4363 9.89595 23.7082 10.4727C24.4106 11.9954 25.6681 12.6991 27.2994 12.7106C28.9988 12.7222 30.7094 12.7106 32.4087 12.7106C32.5673 12.7106 32.7373 12.7106 32.9412 12.7106C32.9412 12.9183 32.9412 13.0798 32.9412 13.2528C32.9412 23.4272 32.9412 33.6015 32.9412 43.7759C32.9412 45.3678 32.2048 46.1176 30.6414 46.1176C21.8843 46.1176 13.1271 46.1176 4.36992 46.1176C2.78388 46.1176 2.05884 45.3678 2.05884 43.7413C2.05884 30.9137 2.05884 18.0747 2.05884 5.24712C2.05884 3.63214 2.79521 2.88232 4.38125 2.88232C10.4988 2.88232 16.6164 2.88232 22.7453 2.88232C22.9039 2.88232 23.0625 2.88232 23.289 2.88232ZM19.4599 20.2549C19.3806 19.7242 19.3353 19.1936 19.2333 18.663C19.0067 17.5902 18.4063 16.898 17.2961 16.6904C15.6761 16.402 14.4072 17.0711 13.9428 18.6053C13.5463 19.9204 13.467 21.2931 14.0561 22.562C14.5545 23.6348 15.2116 24.6269 15.7894 25.6651C15.88 25.8266 15.9706 26.0457 15.9253 26.1957C15.3022 28.076 14.6565 29.9563 13.9994 31.8366C13.9314 32.0212 13.7388 32.2057 13.5576 32.298C12.0962 33.0363 10.6121 33.7054 9.17333 34.4782C8.36899 34.9051 7.56464 35.4011 6.87358 36.0009C5.35552 37.316 5.7407 39.277 7.59863 39.9922C9.02606 40.5459 10.1929 40.0038 11.2692 39.1271C12.9345 37.7659 14.1127 36.0125 15.0756 34.1091C15.2342 33.7976 15.4268 33.6131 15.7667 33.5208C17.7266 32.9901 19.6865 32.448 21.6464 31.9289C21.805 31.8827 22.0315 31.9635 22.1788 32.0558C22.8699 32.5172 23.5383 33.0248 24.2293 33.4862C25.2263 34.1552 26.2685 34.5705 27.5034 34.1437C28.523 33.7861 29.1007 32.9555 29.0894 31.7443C29.0781 30.6946 28.5456 29.9794 27.492 29.6794C27.0842 29.5641 26.665 29.4603 26.2459 29.4718C25.0903 29.5179 23.9348 29.6448 22.7906 29.7025C22.5867 29.714 22.3374 29.6564 22.1788 29.541C20.7854 28.4567 19.5505 27.1993 18.395 25.8496C18.2137 25.6305 18.1797 25.4574 18.2704 25.1921C18.4403 24.7191 18.5876 24.2347 18.7235 23.7502C19.0294 22.6081 19.4486 21.4777 19.4599 20.2549Z" fill="white"/>
<path d="M19.1325 20.1868C19.121 21.3961 18.7101 22.5143 18.3791 23.6552C18.2421 24.1344 18.0937 24.6136 17.9225 25.0814C17.8312 25.3438 17.8655 25.5149 18.0481 25.7317C19.201 27.0666 20.4565 28.2988 21.8605 29.3827C22.0203 29.4968 22.2714 29.5539 22.4769 29.5424C23.6412 29.474 24.8055 29.3599 25.9583 29.3143C26.3692 29.3029 26.803 29.4055 27.2139 29.5196C28.2755 29.8049 28.8233 30.5237 28.8233 31.5619C28.8348 32.7599 28.2412 33.5928 27.2253 33.9351C25.9926 34.3572 24.931 33.9465 23.9265 33.2847C23.2303 32.8283 22.5568 32.3263 21.8605 31.87C21.7121 31.7787 21.4838 31.6988 21.324 31.7445C19.3493 32.2579 17.3746 32.7941 15.3999 33.319C15.0689 33.4102 14.8635 33.5928 14.7036 33.9008C13.7334 35.7948 12.5463 37.529 10.8684 38.8639C9.78401 39.731 8.60832 40.2673 7.1701 39.7196C5.29813 39.0122 4.89862 37.0726 6.43957 35.772C7.13586 35.1787 7.94628 34.6995 8.75671 34.2659C10.2063 33.5129 11.7016 32.8398 13.1741 32.1096C13.3567 32.0183 13.5508 31.8357 13.6193 31.6532C14.2813 29.8049 14.9319 27.9451 15.5597 26.074C15.6054 25.9257 15.5141 25.7089 15.4228 25.5492C14.8406 24.5223 14.1786 23.5411 13.6763 22.48C13.0828 21.225 13.1627 19.8673 13.5622 18.5666C14.0302 17.0492 15.3086 16.3874 16.9409 16.6727C18.0595 16.8666 18.6645 17.5626 18.8928 18.6237C19.0069 19.1257 19.0526 19.6619 19.1325 20.1868ZM16.393 23.5069C16.5985 22.7881 16.8496 22.1606 16.9637 21.4988C17.0779 20.7914 17.1007 20.0612 17.0779 19.3425C17.055 18.7263 16.8039 18.5552 16.1875 18.578C15.7195 18.5894 15.4798 18.8062 15.3429 19.3767C14.9662 20.8941 15.5027 22.2062 16.393 23.5069ZM17.1007 27.6371C16.724 28.7666 16.3587 29.8733 15.9821 31.0028C17.2262 30.672 18.3905 30.3639 19.395 30.1015C18.6645 29.3257 17.8997 28.5042 17.1007 27.6371ZM11.7587 35.0418C11.7245 34.9961 11.7016 34.9505 11.6674 34.9049C10.4118 35.6122 9.15622 36.331 7.90063 37.0384C7.82072 37.084 7.76365 37.1525 7.69517 37.221C7.35273 37.5975 7.39839 37.7458 7.88921 37.9055C8.31155 38.0424 8.69964 37.9854 9.0649 37.7572C10.1835 37.0612 11.0054 36.08 11.7587 35.0418ZM24.5201 31.174C24.5087 31.2196 24.4973 31.2767 24.4858 31.3223C24.7826 31.5049 25.0566 31.733 25.3648 31.87C25.6844 32.0069 26.0382 32.0867 26.3921 32.1324C26.6546 32.1666 26.9057 31.9955 26.8486 31.7102C26.8258 31.5619 26.5975 31.3565 26.4491 31.3337C25.8099 31.2424 25.1593 31.2196 24.5201 31.174Z" fill="black"/>
<path d="M16.6469 23.4704C15.9917 22.2062 15.5968 20.9308 15.8741 19.4447C15.9749 18.9013 16.1513 18.6906 16.4957 18.6684C16.9494 18.6462 17.1342 18.8126 17.151 19.4115C17.1678 20.1101 17.151 20.8199 17.067 21.5075C16.983 22.1507 16.7982 22.7717 16.6469 23.4704Z" fill="white"/>
<path d="M17.5952 27.5881C18.3986 28.4605 19.1675 29.3096 19.902 30.1006C18.8921 30.3681 17.7215 30.6822 16.4706 31.0195C16.8493 29.868 17.2165 28.7513 17.5952 27.5881Z" fill="white"/>
<path d="M12.3529 35.2593C11.5084 36.195 10.5872 37.0596 9.33323 37.68C8.92378 37.8835 8.48874 37.9445 8.01531 37.8123C7.46511 37.6699 7.41393 37.5376 7.79779 37.202C7.86177 37.141 7.93854 37.0799 8.02811 37.0392C9.4356 36.3984 10.8431 35.7678 12.2506 35.1372C12.289 35.1677 12.3145 35.2186 12.3529 35.2593Z" fill="white"/>
<path d="M24.7456 31.7058C25.4864 31.7387 26.2405 31.7552 26.9814 31.8128C27.1666 31.8293 27.418 31.9774 27.4445 32.0844C27.4974 32.2902 27.2195 32.4137 26.9153 32.389C26.5051 32.356 26.095 32.2984 25.7246 32.1997C25.3541 32.1009 25.0366 31.9445 24.7059 31.8046C24.7191 31.7717 24.7323 31.7387 24.7456 31.7058Z" fill="white"/>
</svg>
