<svg width="30" height="30" viewBox="0 0 30 30" fill="none" xmlns="http://www.w3.org/2000/svg">
<path d="M30 15C30 23.2843 23.2843 30 15 30C6.71573 30 0 23.2843 0 15C0 6.71573 6.71573 0 15 0C23.2843 0 30 6.71573 30 15Z" fill="#2A2A30"/>
<path d="M13.6499 19.5643V18.2572C13.6499 17.6 13.7713 17.0857 14.0142 16.7143C14.2571 16.3286 14.6856 16 15.2999 15.7286L15.8999 15.4714C16.6428 15.1572 17.2213 14.7857 17.6356 14.3572C18.0499 13.9143 18.2571 13.3 18.2571 12.5143C18.2571 11.9286 18.1071 11.4357 17.8071 11.0357C17.5071 10.6357 17.0999 10.3286 16.5856 10.1143C16.0713 9.90002 15.4928 9.79288 14.8499 9.79288C14.2071 9.79288 13.6071 9.90716 13.0499 10.1357C12.5071 10.35 12.0642 10.6857 11.7213 11.1429C11.3928 11.5857 11.2285 12.15 11.2285 12.8357V13.5857H9.49277V12.8357C9.49277 11.85 9.72134 11.0214 10.1785 10.35C10.6499 9.66431 11.2856 9.15002 12.0856 8.80716C12.8999 8.45002 13.8213 8.27145 14.8499 8.27145C15.8642 8.27145 16.7571 8.45716 17.5285 8.82859C18.3142 9.18573 18.9213 9.68573 19.3499 10.3286C19.7928 10.9572 20.0142 11.6857 20.0142 12.5143C20.0142 13.3286 19.8571 14.0072 19.5428 14.55C19.2428 15.0786 18.8499 15.5214 18.3642 15.8786C17.8785 16.2214 17.3428 16.5214 16.7571 16.7786L16.1785 17.0357C15.9071 17.15 15.7142 17.3 15.5999 17.4857C15.4856 17.6714 15.4285 17.9357 15.4285 18.2786V19.5643H13.6499ZM14.5713 23.8714C14.1428 23.8714 13.7928 23.7357 13.5213 23.4643C13.2499 23.1929 13.1142 22.8429 13.1142 22.4143C13.1142 21.9857 13.2499 21.6357 13.5213 21.3643C13.7928 21.0929 14.1428 20.9572 14.5713 20.9572C14.9856 20.9572 15.3285 21.0929 15.5999 21.3643C15.8856 21.6357 16.0285 21.9857 16.0285 22.4143C16.0285 22.8429 15.8856 23.1929 15.5999 23.4643C15.3285 23.7357 14.9856 23.8714 14.5713 23.8714Z" fill="white"/>
</svg>
