<svg width="60" height="60" viewBox="0 0 60 60" fill="none" xmlns="http://www.w3.org/2000/svg">
<rect x="59.5" y="0.5" width="59" height="59" rx="29.5" transform="rotate(90 59.5 0.5)" fill="#080808" stroke="#1D1D20"/>
<path d="M16.9802 29.0201C16.5878 28.4644 15.4437 26.5924 14.4398 24.4357C13.9009 23.2778 13.4114 22.0565 13.1029 20.9311C12.9775 20.4739 12.885 20.0427 12.8294 19.6449C16.714 25.2927 21.6472 28.785 23.8101 29.8996C23.9948 30.0076 24.2768 30.2518 24.6076 30.6319C24.9358 31.0092 25.2879 31.4923 25.611 32.0405C26.2615 33.1443 26.762 34.4562 26.7643 35.6597C26.6986 37.4847 25.8201 39.0436 24.9249 40.1915C24.4987 40.7381 24.0756 41.1826 23.7481 41.5101C23.2992 40.3223 22.4632 39.4835 21.6253 38.8993C20.7045 38.2572 19.7465 37.8995 19.2506 37.7144C19.2011 37.6959 19.1563 37.6792 19.1165 37.664C16.9877 36.653 15.8004 35.6322 15.1718 34.802C14.9913 34.5635 14.8587 34.3439 14.7626 34.1465C15.33 34.4505 15.9433 34.6339 16.5215 34.7395C17.4925 34.9169 18.4205 34.8855 18.9948 34.7983L20.6159 34.5523L19.1334 33.8519C15.5474 32.1577 13.7974 30.4384 13.0296 29.0392C12.5791 28.2182 12.4632 27.5051 12.5095 26.9491C13.0067 27.6002 13.6057 28.1486 14.1947 28.5915C14.9957 29.1938 15.8031 29.6196 16.3694 29.8548C16.3784 29.8636 16.3886 29.8731 16.3998 29.8827C16.4154 29.896 16.4667 29.9396 16.5429 29.9714C16.5706 29.983 16.6557 30.0131 16.7618 30.0103L18.1944 30.5731L17.2129 29.323C17.2065 29.3033 17.2007 29.2886 17.1976 29.2808L17.1969 29.2788L17.1159 29.0712L16.9802 29.0201Z" stroke="#00FFFF"/>
<path d="M36.6103 41.5034C37.0548 40.3208 37.8794 39.4843 38.7071 38.9007C39.6185 38.2582 40.5669 37.9002 41.0574 37.715C41.1062 37.6966 41.1504 37.6799 41.1897 37.6648C43.2939 36.6543 44.4675 35.6341 45.089 34.8041C45.2665 34.5671 45.3971 34.3487 45.492 34.152C44.9336 34.4525 44.3307 34.6343 43.762 34.7394C42.8005 34.9169 41.8815 34.8855 41.3123 34.7982L39.7087 34.5521L41.1727 33.8528C44.718 32.1592 46.4483 30.4405 47.2077 29.0412C47.6504 28.2256 47.7666 27.516 47.7235 26.9608C47.2338 27.6059 46.6455 28.1499 46.0668 28.5899C45.2748 29.192 44.4764 29.618 43.9157 29.8536C43.9069 29.8622 43.897 29.8715 43.8861 29.8809C43.8707 29.8942 43.8194 29.9383 43.7429 29.9706C43.7149 29.9825 43.6301 30.0126 43.5244 30.0103L42.0984 30.5767L43.0705 29.325C43.0768 29.3052 43.0826 29.2904 43.0856 29.2825L43.0864 29.2806L43.1666 29.0726L43.301 29.0214C43.6896 28.4648 44.8207 26.5934 45.813 24.4376C46.346 23.2797 46.8303 22.0582 47.1355 20.9324C47.2577 20.4819 47.3483 20.0565 47.4036 19.6634C43.564 25.2989 38.694 28.7846 36.5563 29.8984C36.3745 30.006 36.0959 30.2498 35.7689 30.6299C35.4443 31.007 35.0961 31.4901 34.7765 32.0384C34.1331 33.1422 33.6377 34.4549 33.6354 35.6598C33.7004 37.4864 34.5699 39.046 35.455 40.1936C35.8729 40.7354 36.2877 41.1769 36.6103 41.5034Z" stroke="#00FFFF"/>
<circle cx="30.0836" cy="30.8379" r="8.95325" fill="#00FFFF"/>
<path d="M30.407 35.4034C30.2257 35.4034 30.0427 35.4034 29.8613 35.4034C29.754 35.3893 29.6466 35.3788 29.5392 35.3629C28.983 35.2837 28.4567 35.113 27.9638 34.8419C27.9268 34.8208 27.8687 34.8172 27.8265 34.8296C27.61 34.8929 27.397 34.9651 27.1822 35.0338C26.8091 35.1587 26.4341 35.2802 26.0592 35.4034C26.0117 35.4034 25.9659 35.4034 25.9184 35.4034C25.7775 35.3559 25.6842 35.2626 25.6367 35.1218C25.6367 35.0742 25.6367 35.0285 25.6367 34.9809C25.6402 34.9774 25.6473 34.9739 25.649 34.9686C25.8339 34.3895 26.0187 33.8086 26.207 33.2295C26.2282 33.1661 26.2246 33.1168 26.193 33.057C25.9465 32.6116 25.7811 32.1399 25.7018 31.6365C25.6772 31.4851 25.6578 31.3319 25.6367 31.1788C25.6367 30.9975 25.6367 30.8144 25.6367 30.6331C25.642 30.6085 25.649 30.5821 25.6508 30.5574C25.6948 29.929 25.862 29.3323 26.1648 28.7813C26.8654 27.5122 27.9303 26.7359 29.3579 26.4613C29.5304 26.4278 29.7047 26.4138 29.879 26.3909C30.055 26.3909 30.231 26.3909 30.407 26.3909C30.4299 26.3961 30.4528 26.4032 30.4757 26.405C31.1076 26.4472 31.7061 26.6144 32.2588 26.9189C33.528 27.6213 34.306 28.6863 34.5789 30.1121C34.6123 30.2846 34.6264 30.4588 34.6493 30.6331C34.6493 30.8091 34.6493 30.9852 34.6493 31.1612C34.644 31.1858 34.6369 31.2122 34.6352 31.2369C34.5912 31.8653 34.4257 32.462 34.1212 33.013C33.4206 34.2821 32.3556 35.0584 30.9281 35.333C30.7556 35.3647 30.5813 35.3805 30.407 35.4034ZM26.5362 34.5057C26.9182 34.3825 27.2843 34.2804 27.6399 34.1466C27.8828 34.0551 28.0764 34.0903 28.3018 34.217C29.1203 34.6782 29.9986 34.8102 30.9193 34.6201C31.8751 34.4212 32.6443 33.916 33.2164 33.1274C33.8747 32.2226 34.086 31.2105 33.8607 30.1173C33.667 29.1738 33.1654 28.4169 32.3926 27.8431C31.5565 27.2217 30.613 26.9911 29.5867 27.1407C28.5517 27.2921 27.7173 27.8026 27.0942 28.6422C26.42 29.5488 26.2106 30.5662 26.4236 31.6717C26.5063 32.0976 26.6665 32.4972 26.8935 32.8669C26.9728 32.9971 26.9886 33.1256 26.9358 33.2682C26.8935 33.3809 26.8601 33.4953 26.8231 33.6097C26.7281 33.9019 26.6348 34.1941 26.5362 34.5057Z" fill="black"/>
<path d="M28.3842 31.3373C28.1431 31.3391 27.9406 31.1366 27.9424 30.8955C27.9442 30.6578 28.1413 30.4589 28.3789 30.4572C28.6201 30.4554 28.8225 30.6578 28.8208 30.899C28.8208 31.1366 28.6236 31.3355 28.3842 31.3373Z" fill="black"/>
<path d="M30.583 30.8972C30.583 31.1383 30.3805 31.339 30.1394 31.3372C29.9017 31.3355 29.7046 31.1366 29.7046 30.8989C29.7046 30.6578 29.907 30.4571 30.1482 30.4589C30.3858 30.4606 30.5812 30.6578 30.583 30.8972Z" fill="black"/>
<path d="M32.343 30.8937C32.3448 31.1349 32.1441 31.3373 31.9012 31.3355C31.6636 31.3338 31.4647 31.1366 31.4629 30.899C31.4611 30.6578 31.6618 30.4554 31.9047 30.4572C32.1424 30.4589 32.3413 30.6561 32.343 30.8937Z" fill="black"/>
</svg>
