<svg width="46" height="46" viewBox="0 0 46 46" fill="none" xmlns="http://www.w3.org/2000/svg">
<g opacity="0.7" clip-path="url(#clip0_506_152)">
<path fill-rule="evenodd" clip-rule="evenodd" d="M2.00609 14.8822L4.01337 15.5482C4.76955 15.7854 9.88547 17.507 10.159 17.5082C10.3415 17.1877 10.5778 16.563 10.8818 16.0399C11.1485 15.5801 11.4384 15.1499 11.7503 14.7024C12.0833 14.2254 12.857 13.3252 13.2999 12.9322C13.3973 12.8457 13.8023 12.4872 13.8719 12.3788C13.8094 12.2002 12.8136 10.8839 12.6326 10.6375C12.2232 10.0804 11.7954 9.48699 11.3856 8.9083L8.86376 5.44654C8.55902 5.53536 6.9482 7.1301 6.72784 7.35092C5.49097 8.58855 4.15502 10.4678 3.27419 12.0499C3.05981 12.4351 1.99567 14.5222 2.00593 14.8821L2.00609 14.8822Z" fill="#00FFFF"/>
<path d="M13.6907 24.0146H12.9875L12.4954 23.3486H11.3928V24.0146H10.8267V22.7823H12.7583C12.8581 22.7823 12.9468 22.7489 13.0174 22.6786C13.0877 22.6048 13.1246 22.5197 13.1246 22.4197C13.1246 22.3197 13.0877 22.2347 13.0174 22.1606C12.947 22.0903 12.8581 22.0569 12.7583 22.0569H10.8267V21.4871L12.7583 21.4906C12.8877 21.4906 13.0062 21.5128 13.1208 21.5647C13.3465 21.6646 13.5131 21.8312 13.6166 22.0607C13.6647 22.1791 13.6907 22.3011 13.6907 22.4197C13.6907 22.538 13.6647 22.6601 13.6166 22.7786C13.5168 23.0043 13.3575 23.1671 13.1356 23.267L13.6907 24.0144V24.0146ZM23.782 24.0146H20.9179V23.4484H23.782V24.0146ZM23.782 22.0645H20.9179V21.4986H23.782V22.0645ZM23.5489 23.0377H21.1473V22.4717H23.5489V23.0377ZM26.0118 24.0147H24.7907C24.6797 24.0147 24.5762 23.9963 24.4798 23.9556C24.2801 23.8741 24.1321 23.7411 24.0359 23.5449C23.9915 23.4524 23.9691 23.3487 23.9691 23.2414H24.5353C24.5353 23.2858 24.5501 23.323 24.576 23.3526C24.602 23.3858 24.6351 23.408 24.6758 23.4228C24.7131 23.4375 24.7536 23.4486 24.7905 23.4486H26.0116C26.0485 23.4486 26.0893 23.4375 26.1263 23.4228C26.1671 23.408 26.2004 23.3858 26.2262 23.3526C26.2522 23.323 26.2669 23.2858 26.2669 23.2414C26.2669 23.1971 26.2522 23.1599 26.2262 23.1304C26.2003 23.1008 26.1671 23.0749 26.1263 23.0601C26.0891 23.0415 26.0485 23.0342 26.0116 23.0342H24.7905C24.6795 23.0342 24.576 23.0155 24.4797 22.9786C24.28 22.8973 24.1319 22.7602 24.0357 22.5679C23.9913 22.4754 23.969 22.3717 23.969 22.2645C23.969 22.1535 23.9912 22.0535 24.0357 21.9575C24.1318 21.7652 24.28 21.6281 24.4797 21.5503C24.576 21.5096 24.6795 21.4912 24.7905 21.4912H26.0116C26.1227 21.4912 26.2262 21.5096 26.3225 21.5503C26.5222 21.6281 26.6703 21.7652 26.7664 21.9575C26.8108 22.0535 26.8332 22.1537 26.8332 22.2645H26.2671C26.2671 22.2201 26.2524 22.1832 26.2263 22.1535C26.2004 22.1201 26.1672 22.0979 26.1265 22.0831C26.0893 22.0647 26.0487 22.0573 26.0118 22.0573H24.7907C24.7538 22.0573 24.7131 22.0647 24.676 22.0831C24.6353 22.0979 24.6022 22.1203 24.5762 22.1535C24.5503 22.1831 24.5354 22.22 24.5354 22.2645C24.5354 22.3088 24.5503 22.346 24.5762 22.3756C24.6022 22.4051 24.6353 22.4273 24.676 22.4458C24.7132 22.4607 24.7538 22.4681 24.7907 22.4681H26.0118C26.1228 22.4681 26.2263 22.4903 26.3227 22.531C26.5223 22.6086 26.6704 22.7455 26.7666 22.938C26.811 23.0343 26.8334 23.1342 26.8334 23.2414C26.8334 23.3487 26.8112 23.4524 26.7666 23.5449C26.6706 23.7411 26.5223 23.8743 26.3227 23.9556C26.2263 23.9963 26.1227 24.0147 26.0118 24.0147ZM28.4633 24.0147H27.8972V22.0535H26.9794V21.4875H29.3811V22.0535H28.4635V24.0147H28.4633ZM31.0959 24.0147H30.5297V22.0535H29.612V21.4875H32.0136V22.0535H31.096V24.0147H31.0959ZM34.6755 24.0147H34.0279L33.014 22.2054L32.0001 24.0147H31.3525L32.7659 21.4875H33.2619L34.6754 24.0147H34.6755ZM20.6064 24.0147H20.044V22.3644L19.178 23.6002H18.7157L17.8497 22.3644V24.0147H17.2836V21.4875H17.9238L18.9451 22.9452L19.9665 21.4875H20.6066V24.0147H20.6064ZM17.1481 24.0147H16.5004L15.4865 22.2054L14.4726 24.0147H13.825L15.2385 21.4875H15.7343L17.1477 24.0147H17.1481Z" fill="#00FFFF"/>
<path fill-rule="evenodd" clip-rule="evenodd" d="M2.36826 17.2393L1.31071 16.9287C1.12511 17.3086 0.830942 19.1155 0.750393 19.6213C0.289611 22.5108 0.594502 25.8632 1.30091 28.5718C1.56553 28.5522 7.54329 26.5914 8.41248 26.2946C8.72304 26.1885 9.14936 26.0802 9.45073 25.9562C9.48534 25.8271 9.27233 24.6937 9.23389 24.4263C9.09531 23.4598 9.0777 22.0832 9.22455 21.1261L9.4812 19.5873L9.27325 19.4818C9.178 19.4501 9.11292 19.4334 9.0146 19.4005L2.36811 17.2394L2.36826 17.2393Z" fill="#00FFFF"/>
<path fill-rule="evenodd" clip-rule="evenodd" d="M1.99576 30.6366C2.059 31.1041 2.97536 32.9135 3.26402 33.4284C3.96936 34.6841 4.7969 35.9424 5.73821 37.0419C6.37633 37.7869 7.04491 38.4721 7.72146 39.117C8.02926 39.4104 8.44119 39.7782 8.82097 40.0459C8.97196 39.9643 9.33795 39.4055 9.46735 39.226C10.4012 37.9317 11.6772 36.1122 12.6071 34.9006C12.8332 34.606 13.0218 34.3268 13.2441 34.0273C13.3663 33.8628 13.4358 33.7617 13.5562 33.6012C13.6341 33.4973 13.8017 33.2794 13.8721 33.14C13.7968 32.9689 13.4703 32.7333 13.33 32.6022C12.4313 31.763 11.5094 30.5537 10.8932 29.4729C10.5969 28.9525 10.3151 28.2553 10.1591 27.9827C9.95355 27.982 6.56453 29.127 6.08277 29.2793C5.58615 29.4364 2.15058 30.5116 1.99561 30.6366H1.99576Z" fill="#00FFFF"/>
<path fill-rule="evenodd" clip-rule="evenodd" d="M10.5963 41.3407C13.1629 43.076 15.4294 43.8398 18.4054 44.538C19.2547 44.7372 20.7787 44.9433 21.6945 44.9327C21.6945 43.972 21.7609 36.5886 21.6553 36.3227C20.4584 36.2266 19.3818 36.0032 18.3479 35.6482C17.8427 35.4745 17.3869 35.2854 16.9425 35.0804C16.473 34.864 16.0778 34.5981 15.6407 34.3865C15.4469 34.5314 15.1556 35.0144 15.0046 35.2211C14.7619 35.554 14.5777 35.8073 14.3679 36.0955C13.9776 36.6321 13.5094 37.2636 13.098 37.8469C12.8088 38.2568 10.6406 41.1548 10.5962 41.3405L10.5963 41.3407Z" fill="#00FFFF"/>
<path fill-rule="evenodd" clip-rule="evenodd" d="M23.8273 44.9376C24.4366 44.981 26.409 44.6883 27.0505 44.5493C28.0918 44.3236 29.0008 44.0933 29.9449 43.7747C31.0638 43.3973 33.994 42.1066 34.8954 41.3408C34.8622 41.1618 33.8591 39.8542 33.6657 39.5856L29.8841 34.3919L28.5164 35.1007C28.0742 35.3044 27.5368 35.5223 27.043 35.688C26.1424 35.9904 25.4277 36.1303 24.4939 36.2575C23.7244 36.3623 23.8069 36.2321 23.811 36.6328C23.8178 37.3232 23.7669 44.5425 23.8271 44.9379L23.8273 44.9376Z" fill="#00FFFF"/>
<path fill-rule="evenodd" clip-rule="evenodd" d="M31.6221 33.0967C31.6751 33.2853 32.6101 34.5092 32.8436 34.8404C33.2594 35.4295 33.6621 35.9574 34.1169 36.5874C34.4333 37.0253 36.4997 39.928 36.6602 40.0474C37.036 39.8603 38.4833 38.453 38.7963 38.1242C40.0789 36.7756 41.3623 35.0534 42.2423 33.4147C42.4268 33.0711 43.5165 30.9516 43.5038 30.6104L35.3685 27.963C35.103 28.3097 34.3767 30.5676 32.1972 32.561C32.0156 32.727 31.8562 32.9115 31.6221 33.0965V33.0967Z" fill="#00FFFF"/>
<path fill-rule="evenodd" clip-rule="evenodd" d="M36.0166 19.553C36.0651 20.2703 36.3729 20.9995 36.3729 22.5221C36.3729 23.4248 36.3298 23.6758 36.2601 24.5528C36.2351 24.8663 36.0028 25.7531 36.0374 25.9482C36.6817 26.1937 37.3656 26.3779 38.0556 26.6099L44.1882 28.5836C44.8143 26.0067 44.9708 24.9243 44.9708 22.263C44.9708 20.535 44.612 18.4408 44.1958 16.9249C43.6897 16.9823 37.1428 19.2501 36.0166 19.5528V19.553Z" fill="#00FFFF"/>
<path fill-rule="evenodd" clip-rule="evenodd" d="M31.6172 12.3789C31.7617 12.552 32.3991 13.0869 32.73 13.461C33.5184 14.3516 34.0278 15.0034 34.6088 16.0309L35.3658 17.5171L43.5092 14.8894C43.4825 14.4842 42.4715 12.4953 42.2498 12.0933C41.7827 11.2467 41.2284 10.3796 40.6572 9.59143C39.9312 8.58947 38.6938 7.18584 37.7764 6.38418C37.4597 6.10731 37.0117 5.65602 36.6605 5.44133C36.5118 5.56032 34.2943 8.67201 34.1298 8.89788C33.7658 9.39787 33.304 10.0043 32.8758 10.6197L31.6172 12.3788V12.3789Z" fill="#00FFFF"/>
<path fill-rule="evenodd" clip-rule="evenodd" d="M23.8135 9.15561C24.4133 9.25668 24.9918 9.28562 25.5522 9.41364C28.1605 10.0092 29.7079 11.0598 29.8839 11.097L34.2756 5.07595C34.4115 4.88499 34.839 4.35637 34.9021 4.17828C34.8018 4.06251 34.5203 3.90677 34.3599 3.8057C34.1632 3.68212 33.9759 3.57186 33.7908 3.46574C33.3956 3.23926 32.9777 3.02257 32.578 2.81905C30.899 1.96472 29.0005 1.34927 27.1181 0.958317C26.3769 0.804416 24.5501 0.50657 23.8221 0.568436L23.8136 9.15576L23.8135 9.15561Z" fill="#00FFFF"/>
<path fill-rule="evenodd" clip-rule="evenodd" d="M10.5923 4.17812L14.3344 9.36663C14.5321 9.63002 15.4811 10.9917 15.6404 11.1015L16.9576 10.4107C17.3993 10.2006 17.8976 10.007 18.3654 9.84104C19.7041 9.36571 21.4454 9.2311 21.6791 9.14182L21.6942 0.583595C19.9771 0.49784 17.1221 1.1894 15.4934 1.74282C14.481 2.08676 11.1087 3.56344 10.5924 4.17812H10.5923Z" fill="#00FFFF"/>
</g>
<defs>
<clipPath id="clip0_506_152">
<rect width="45.5021" height="45.5021" fill="white"/>
</clipPath>
</defs>
</svg>
