<svg width="100" height="100" viewBox="0 0 100 100" fill="none" xmlns="http://www.w3.org/2000/svg">
<path d="M10.8856 28.7053C10.7506 28.2129 10.6327 27.7355 10.5326 27.2745C19.4192 39.6684 30.318 47.3603 35.2161 49.8867C35.5972 50.1118 36.2193 50.6443 36.9725 51.5098C37.7191 52.3678 38.5232 53.4707 39.2622 54.7246C40.7534 57.2548 41.8819 60.2327 41.889 62.9368C41.7385 67.0633 39.7499 70.6066 37.6966 73.2394C36.8706 74.2987 36.0491 75.1915 35.3591 75.8978C34.2518 73.3194 32.3752 71.4738 30.5105 70.1736C28.3378 68.6587 26.0767 67.815 24.9285 67.3866C24.8196 67.3459 24.7207 67.309 24.6328 67.2757C19.7387 64.9496 17.0392 62.6157 15.6252 60.7482C15.4859 60.5641 15.3596 60.3857 15.2454 60.2131C16.3014 60.6608 17.3889 60.9558 18.4215 61.1444C20.7128 61.5629 22.9024 61.4896 24.268 61.2823L29.1312 60.5442L24.6837 58.443C16.4059 54.5323 12.4186 50.5871 10.6858 47.4295C9.91079 46.0172 9.5809 44.7587 9.51347 43.7C10.5549 44.9171 11.7302 45.9607 12.8833 46.8278C14.7372 48.2218 16.6068 49.2146 17.942 49.7752C17.9539 49.786 17.9663 49.7969 17.9792 49.808C18.023 49.8454 18.1744 49.9745 18.401 50.0692C18.4761 50.1005 18.695 50.1785 18.9744 50.1853L23.4035 51.9252L20.3892 48.0863C20.3802 48.0614 20.3728 48.0426 20.3683 48.031C20.3674 48.0288 20.3667 48.0268 20.366 48.0252L20.1231 47.4023L19.7647 47.2673C18.8258 45.9138 16.2424 41.6685 13.9655 36.7767C12.7205 34.1019 11.594 31.2895 10.8856 28.7053ZM19.3644 47.1154C19.3632 47.1149 19.3619 47.1144 19.3606 47.1139C18.7991 46.893 18.06 46.5491 17.2342 46.0875L19.3644 47.1154Z" stroke="#00FFFF" stroke-width="3"/>
<path d="M89.1296 28.7094C89.2577 28.2369 89.3703 27.7781 89.4667 27.3343C80.6866 39.689 69.9367 47.3595 65.0976 49.8833C64.7231 50.1071 64.109 50.6382 63.3642 51.5036C62.626 52.3613 61.8306 53.4643 61.0997 54.7184C59.6249 57.2486 58.5073 60.2289 58.5004 62.9371C58.6493 67.0685 60.6181 70.6138 62.6481 73.2458C63.4552 74.2923 64.258 75.1763 64.9352 75.8785C66.0309 73.3147 67.8805 71.476 69.7216 70.1781C71.8726 68.6616 74.1115 67.8169 75.2471 67.3885C75.3544 67.348 75.4519 67.3113 75.5384 67.278C80.3753 64.9535 83.0433 62.6213 84.4411 60.7546C84.5774 60.5725 84.7011 60.3959 84.8131 60.2251C83.7773 60.6656 82.7118 60.9569 81.6993 61.1439C79.4294 61.5631 77.2602 61.4897 75.9063 61.2819L71.0955 60.5437L75.4873 58.4458C83.6704 54.5369 87.6124 50.5936 89.3264 47.4356C90.0849 46.0381 90.4129 44.7902 90.4848 43.737C89.4638 44.9359 88.3149 45.9655 87.1871 46.823C85.3541 48.2166 83.5051 49.2098 82.1829 49.7715C82.1717 49.7818 82.16 49.7922 82.1478 49.8027C82.1046 49.84 81.9531 49.9708 81.7256 50.0669C81.6498 50.0989 81.4316 50.177 81.1533 50.1851L76.7448 51.9361L79.7297 48.0923C79.7388 48.067 79.7462 48.0479 79.7508 48.0361C79.7516 48.034 79.7524 48.032 79.753 48.0304L79.9936 47.4065L80.3487 47.2713C81.2787 45.9152 83.8322 41.6717 86.0829 36.7825C87.3143 34.1074 88.4287 31.2944 89.1296 28.7094ZM80.7496 47.1174C80.7513 47.1168 80.753 47.1161 80.7547 47.1154C81.3129 46.8934 82.0492 46.5465 82.8719 46.0806L80.7496 47.1174Z" stroke="#00FFFF" stroke-width="3"/>
<circle cx="49.9256" cy="51.7635" r="20.7573" fill="#00FFFF"/>
<path d="M50.6753 62.3485C50.2549 62.3485 49.8305 62.3485 49.4102 62.3485C49.1612 62.3158 48.9123 62.2913 48.6633 62.2546C47.3737 62.071 46.1535 61.6751 45.0108 61.0466C44.9251 60.9977 44.7905 60.9895 44.6925 61.0181C44.1905 61.165 43.6967 61.3323 43.1989 61.4915C42.3337 61.7812 41.4644 62.0628 40.5952 62.3485C40.485 62.3485 40.3789 62.3485 40.2687 62.3485C39.9422 62.2383 39.7259 62.022 39.6157 61.6955C39.6157 61.5853 39.6157 61.4792 39.6157 61.369C39.6239 61.3609 39.6402 61.3527 39.6443 61.3405C40.0728 59.9978 40.5013 58.6511 40.938 57.3084C40.9869 57.1615 40.9788 57.0472 40.9053 56.9085C40.334 55.876 39.9504 54.7823 39.7667 53.6151C39.7096 53.2641 39.6647 52.9091 39.6157 52.554C39.6157 52.1337 39.6157 51.7093 39.6157 51.2889C39.628 51.2318 39.6443 51.1706 39.6484 51.1134C39.7504 49.6565 40.1381 48.2731 40.84 46.9957C42.4643 44.0533 44.9333 42.2536 48.243 41.6169C48.6429 41.5394 49.047 41.5067 49.451 41.4537C49.8591 41.4537 50.2672 41.4537 50.6753 41.4537C50.7283 41.4659 50.7814 41.4822 50.8344 41.4863C52.2995 41.5843 53.6871 41.972 54.9685 42.678C57.9109 44.3063 59.7147 46.7753 60.3473 50.0809C60.4248 50.4809 60.4575 50.8849 60.5105 51.2889C60.5105 51.697 60.5105 52.1051 60.5105 52.5132C60.4983 52.5704 60.482 52.6316 60.4779 52.6887C60.3759 54.1456 59.9922 55.5291 59.2862 56.8065C57.662 59.7489 55.193 61.5486 51.8833 62.1852C51.4833 62.2587 51.0793 62.2954 50.6753 62.3485ZM41.7011 60.2672C42.5867 59.9815 43.4356 59.7448 44.2599 59.4346C44.8231 59.2224 45.272 59.304 45.7944 59.5979C47.6921 60.6671 49.7285 60.9732 51.8629 60.5324C54.0788 60.0713 55.8623 58.9 57.1886 57.0717C58.7149 54.9741 59.2046 52.6275 58.6822 50.0932C58.2333 47.9058 57.0702 46.1509 55.2787 44.8205C53.3402 43.3799 51.1528 42.8453 48.7735 43.1922C46.3739 43.5432 44.4395 44.7267 42.9948 46.6733C41.4318 48.775 40.9461 51.1338 41.4399 53.6967C41.6317 54.6843 42.0031 55.6107 42.5296 56.4677C42.7132 56.7697 42.7499 57.0676 42.6275 57.3982C42.5296 57.6594 42.452 57.9247 42.3663 58.1899C42.146 58.8674 41.9297 59.5448 41.7011 60.2672Z" fill="black"/>
<path d="M45.9863 52.9213C45.4272 52.9254 44.9579 52.456 44.9619 51.8969C44.966 51.346 45.4231 50.8848 45.974 50.8808C46.5331 50.8767 47.0024 51.346 46.9984 51.9051C46.9984 52.456 46.5413 52.9172 45.9863 52.9213Z" fill="black"/>
<path d="M51.0835 51.901C51.0835 52.4601 50.6142 52.9254 50.0551 52.9213C49.5042 52.9172 49.0471 52.456 49.0471 51.9051C49.0471 51.346 49.5164 50.8808 50.0755 50.8849C50.6265 50.8889 51.0795 51.346 51.0835 51.901Z" fill="black"/>
<path d="M55.1646 51.8929C55.1686 52.452 54.7034 52.9213 54.1402 52.9172C53.5893 52.9131 53.1281 52.456 53.1241 51.9051C53.12 51.346 53.5852 50.8767 54.1484 50.8808C54.6993 50.8848 55.1605 51.3419 55.1646 51.8929Z" fill="black"/>
</svg>
