<svg width="25" height="18" viewBox="0 0 25 18" fill="none" xmlns="http://www.w3.org/2000/svg">
<path d="M24.9895 9.56672C24.9581 11.9071 23.9171 14.6703 21.835 17.0342C21.4592 17.4569 20.9974 17.5978 20.4651 17.4256C19.9485 17.2534 19.6746 16.8698 19.6276 16.3375C19.5885 15.9462 19.7528 15.6252 20.0111 15.3278C21.2244 13.9501 22.0306 12.3611 22.3359 10.553C22.8682 7.42197 22.1011 4.63537 20.0424 2.21666C19.7763 1.90356 19.5806 1.58263 19.6276 1.15994C19.6824 0.62767 19.9563 0.244121 20.473 0.0719155C20.9818 -0.0924628 21.4436 0.0249503 21.8036 0.424155C22.7195 1.43391 23.4553 2.57673 23.9954 3.82913C24.6529 5.40247 24.9973 7.04625 24.9895 9.56672Z" fill="white"/>
<path d="M4.24662 17.496C3.70652 17.496 3.39342 17.316 3.13511 17.0185C1.35826 14.999 0.309374 12.6586 0.0588932 9.98158C-0.269863 6.36525 0.779027 3.18728 3.17425 0.455465C3.54215 0.0406057 4.00397 -0.0924624 4.52059 0.0797434C5.03721 0.244122 5.319 0.627671 5.36596 1.15994C5.4051 1.56698 5.23289 1.89573 4.96676 2.19318C3.88656 3.4221 3.13511 4.83106 2.77505 6.42788C2.03926 9.7311 2.76722 12.6899 4.9511 15.2808C5.23289 15.6174 5.42858 15.9618 5.36596 16.4236C5.27203 17.0655 4.75541 17.5038 4.24662 17.496Z" fill="white"/>
<path d="M8.19998 3.06986C8.59918 3.08552 8.98273 3.31252 9.20973 3.77434C9.4289 4.23617 9.37411 4.69016 9.06101 5.08937C8.92011 5.27723 8.74791 5.43378 8.59918 5.61381C7.04933 7.55504 7.15109 10.3338 8.84967 12.1576C9.16277 12.4942 9.38977 12.8543 9.31932 13.3318C9.24104 13.8406 8.95925 14.1928 8.46612 14.3572C7.96515 14.5215 7.51898 14.3885 7.15892 14.0128C6.1022 12.9326 5.40555 11.641 5.14724 10.1538C4.70107 7.60983 5.37424 5.38681 7.14326 3.50038C7.41723 3.1951 7.70684 3.06986 8.19998 3.06986Z" fill="white"/>
<path d="M19.9957 9.06575C19.9643 10.7565 19.2912 12.4864 17.9292 13.9345C17.3734 14.5294 16.6298 14.592 16.0819 14.0989C15.5261 13.5979 15.534 12.8386 16.0975 12.2281C17.8431 10.3182 17.9605 7.602 16.3872 5.62164C16.2698 5.47291 16.1367 5.34767 16.0193 5.20678C15.5418 4.65885 15.5731 3.89175 16.0897 3.4221C16.5985 2.96027 17.35 2.99941 17.8509 3.5082C19.2207 4.87802 19.9957 6.80359 19.9957 9.06575Z" fill="white"/>
<path d="M12.5046 10.6313C11.4635 10.6313 10.6182 9.79371 10.6182 8.76048C10.6182 7.73507 11.4479 6.88969 12.4733 6.88187C13.5222 6.87404 14.3754 7.71941 14.3676 8.7683C14.3676 9.78588 13.5222 10.6234 12.5046 10.6313Z" fill="white"/>
</svg>
