<svg width="27" height="24" viewBox="0 0 27 24" fill="none" xmlns="http://www.w3.org/2000/svg">
<path d="M26.7457 10.147C26.4247 10.7471 26.041 10.8308 25.4828 10.4261C21.513 7.51675 17.5362 4.60738 13.5733 1.69801C13.4128 1.5794 13.3151 1.60731 13.1686 1.71196C9.20573 4.60738 5.24285 7.50977 1.27997 10.4122C0.81252 10.754 0.400883 10.7401 0.13576 10.3703C-0.122385 10.0075 -0.0107545 9.63075 0.456698 9.28888C4.56609 6.28881 8.68247 3.27479 12.7919 0.267745C13.2802 -0.0880769 13.4756 -0.0880769 13.957 0.260768C18.0804 3.28177 22.2107 6.30277 26.334 9.32376C26.4945 9.44237 26.6131 9.62377 26.7457 9.77726C26.7457 9.90285 26.7457 10.0215 26.7457 10.147Z" fill="black"/>
<path d="M4.34293 22.4403C4.44758 22.4473 4.5313 22.4543 4.61503 22.4543C6.27553 22.4543 7.93603 22.4473 9.60351 22.4613C9.8477 22.4613 9.90352 22.3915 9.90352 22.1543C9.89654 20.2845 9.89654 18.4147 9.89654 16.5379C9.89654 14.8215 10.9291 13.4541 12.5199 13.0424C14.585 12.5122 16.692 13.9983 16.8176 16.1262C16.8804 17.2076 16.8386 18.303 16.8455 19.3914C16.8455 20.3333 16.8455 21.2682 16.8455 22.2101C16.8455 22.3496 16.8455 22.4613 17.0409 22.4613C18.7921 22.4543 20.5363 22.4543 22.2875 22.4543C22.3154 22.4543 22.3364 22.4473 22.3991 22.4333C22.3991 22.3357 22.3991 22.238 22.3991 22.1403C22.3991 18.5961 22.3991 15.0588 22.3991 11.5145C22.3991 10.9982 22.6922 10.6842 23.1457 10.7122C23.4527 10.7331 23.7108 10.9494 23.7666 11.2494C23.7876 11.361 23.7945 11.4726 23.7945 11.5843C23.7945 15.3727 23.7945 19.1542 23.7945 22.9427C23.7945 23.6055 23.5573 23.8357 22.9015 23.8357C20.7107 23.8357 18.513 23.8357 16.3223 23.8357C15.7013 23.8357 15.4571 23.5915 15.4571 22.9636C15.4571 20.7938 15.4641 18.6309 15.4571 16.4611C15.4571 15.289 14.592 14.375 13.4617 14.3262C12.2687 14.2773 11.2919 15.2192 11.2849 16.4402C11.278 18.6309 11.2849 20.8287 11.271 23.0194C11.271 23.2217 11.1942 23.459 11.0687 23.6055C10.957 23.738 10.7198 23.8218 10.5384 23.8218C8.24999 23.8357 5.96157 23.8357 3.67315 23.8287C3.24058 23.8287 2.97546 23.5706 2.94057 23.138C2.93359 23.0543 2.93359 22.9636 2.93359 22.8799C2.93359 19.1402 2.93359 15.3937 2.93359 11.654C2.93359 11.5354 2.93359 11.4098 2.94755 11.2912C2.99639 10.9284 3.28942 10.6912 3.65919 10.7052C4.00804 10.7191 4.28014 10.9773 4.31502 11.3261C4.322 11.4238 4.322 11.5145 4.322 11.6122C4.322 15.1076 4.322 18.61 4.322 22.1054C4.34293 22.2101 4.34293 22.3147 4.34293 22.4403Z" fill="black"/>
</svg>
