<svg width="24" height="24" viewBox="0 0 24 24" fill="none" xmlns="http://www.w3.org/2000/svg">
<path d="M9.45312 0C9.77812 0.1375 10.1344 0.2375 10.4219 0.43125C10.9781 0.80625 11.2656 1.375 11.2719 2.04375C11.2844 4.45 11.2844 6.85625 11.2719 9.25625C11.2656 10.3562 10.3469 11.2812 9.25312 11.2875C6.84687 11.3062 4.43437 11.3062 2.02812 11.2875C0.934375 11.2812 0.015625 10.3562 0.009375 9.2625C-0.003125 6.85625 -0.003125 4.45 0.009375 2.05C0.009375 1.0875 0.696875 0.275 1.64687 0.05C1.70937 0.0375 1.76562 0.01875 1.82187 0C4.36562 0 6.90937 0 9.45312 0ZM5.61562 9.8875C6.77187 9.8875 7.92187 9.8875 9.07812 9.8875C9.59687 9.8875 9.87812 9.60625 9.87812 9.09375C9.87812 6.8 9.87812 4.5 9.87812 2.20625C9.87812 1.675 9.60312 1.4 9.07187 1.4C6.79062 1.4 4.50312 1.4 2.22187 1.4C1.69062 1.4 1.41562 1.675 1.41562 2.20625C1.41562 4.49375 1.41562 6.78125 1.41562 9.06875C1.41562 9.6125 1.69062 9.8875 2.23437 9.8875C3.35312 9.89375 4.48437 9.8875 5.61562 9.8875Z" fill="white"/>
<path d="M23.9533 9.46874C23.8783 9.68749 23.8283 9.92499 23.7221 10.125C23.3471 10.8625 22.7283 11.2812 21.9096 11.2875C19.5158 11.3062 17.1221 11.3062 14.7283 11.2937C13.6096 11.2875 12.6846 10.3625 12.6783 9.24374C12.6658 6.85624 12.6658 4.46249 12.6783 2.07499C12.6846 1.09999 13.3658 0.287491 14.3221 0.0562408C14.3846 0.0437408 14.4408 0.0249908 14.4971 0.00624084C17.0408 0.00624084 19.5783 0.00624084 22.1221 0.00624084C22.1658 0.0187408 22.2096 0.0374908 22.2533 0.0499908C22.9721 0.206241 23.4846 0.631241 23.7783 1.29999C23.8533 1.46874 23.8908 1.65624 23.9471 1.83124C23.9533 4.37499 23.9533 6.92499 23.9533 9.46874ZM18.3158 9.88749C19.4596 9.88749 20.6096 9.88749 21.7533 9.88749C22.2658 9.88749 22.5471 9.60624 22.5471 9.09374C22.5471 6.79999 22.5471 4.50624 22.5471 2.20624C22.5471 1.67499 22.2721 1.40624 21.7346 1.39999C19.4533 1.39999 17.1658 1.39999 14.8846 1.39999C14.3533 1.39999 14.0783 1.67499 14.0783 2.20624C14.0783 4.49374 14.0783 6.78124 14.0783 9.06874C14.0783 9.61249 14.3533 9.88124 14.9033 9.88124C16.0408 9.89374 17.1783 9.88749 18.3158 9.88749Z" fill="white"/>
<path d="M1.82812 24C1.50312 23.8562 1.14687 23.7625 0.859375 23.5687C0.296875 23.1875 0.009375 22.6125 0.009375 21.9312C-0.003125 19.5437 -0.003125 17.15 0.009375 14.7625C0.015625 13.6437 0.934375 12.7125 2.05312 12.7062C4.44687 12.6937 6.84062 12.6937 9.22812 12.7062C10.3469 12.7125 11.2656 13.6375 11.2719 14.7625C11.2844 17.15 11.2844 19.5437 11.2719 21.9312C11.2656 22.925 10.5594 23.7562 9.58437 23.9562C9.54062 23.9625 9.49687 23.9875 9.45312 24C6.90937 24 4.36562 24 1.82812 24ZM5.63437 14.1125C4.47812 14.1125 3.32812 14.1125 2.17187 14.1125C1.69062 14.1125 1.40312 14.4 1.40312 14.8812C1.40312 17.1937 1.40312 19.5 1.40312 21.8125C1.40312 22.3125 1.69062 22.5937 2.19062 22.5937C4.49062 22.5937 6.79062 22.5937 9.08437 22.5937C9.58437 22.5937 9.86562 22.3125 9.86562 21.8125C9.86562 19.5125 9.86562 17.2062 9.86562 14.9062C9.86562 14.3937 9.58437 14.1125 9.06562 14.1125C7.92812 14.1062 6.78437 14.1125 5.63437 14.1125Z" fill="white"/>
<path d="M14.5029 24C14.1779 23.8562 13.8217 23.7625 13.5342 23.5687C12.9717 23.1875 12.6842 22.6125 12.6842 21.9312C12.6717 19.5437 12.6717 17.15 12.6842 14.7625C12.6904 13.6438 13.6154 12.7187 14.7342 12.7125C17.1217 12.7 19.5029 12.7 21.8904 12.7125C22.8654 12.7187 23.6842 13.4063 23.9029 14.3562C23.9154 14.4187 23.9342 14.475 23.9529 14.5375C23.9529 17.0875 23.9529 19.6312 23.9529 22.175C23.9342 22.2312 23.9154 22.2937 23.9029 22.35C23.7154 23.0937 23.2654 23.6062 22.5529 23.875C22.4154 23.925 22.2717 23.9562 22.1279 24C19.5842 24 17.0467 24 14.5029 24ZM18.3154 14.1125C17.1592 14.1125 16.0092 14.1125 14.8529 14.1125C14.3654 14.1125 14.0842 14.4 14.0779 14.8813C14.0779 17.1938 14.0779 19.5 14.0779 21.8125C14.0779 22.3125 14.3654 22.5937 14.8654 22.5937C17.1654 22.5937 19.4654 22.5937 21.7592 22.5937C22.2592 22.5937 22.5404 22.3125 22.5404 21.8125C22.5404 19.5125 22.5404 17.2062 22.5404 14.9063C22.5404 14.3938 22.2592 14.1125 21.7404 14.1125C20.6029 14.1063 19.4592 14.1125 18.3154 14.1125Z" fill="white"/>
<path d="M6.36571 6.375C6.36571 6.84375 6.36571 7.26875 6.36571 7.7C6.36571 8.16875 6.07196 8.49375 5.65321 8.48125C5.24696 8.475 4.96571 8.15625 4.96571 7.7C4.96571 7.26875 4.96571 6.84375 4.96571 6.375C4.79696 6.375 4.64071 6.375 4.47821 6.375C4.22821 6.375 3.97821 6.375 3.72821 6.375C3.18446 6.375 2.86571 6.11875 2.85946 5.675C2.85321 5.2375 3.18446 4.96875 3.71571 4.96875C4.12196 4.96875 4.52196 4.96875 4.95946 4.96875C4.95946 4.50625 4.95946 4.05625 4.95946 3.60625C4.95946 3.325 5.06571 3.10625 5.30946 2.95625C5.77196 2.675 6.34696 3 6.36571 3.55625C6.37821 4.0125 6.36571 4.475 6.36571 4.9625C6.84071 4.9625 7.29696 4.95625 7.75321 4.9625C8.30321 4.96875 8.63446 5.5125 8.39071 5.98125C8.25321 6.24375 8.03446 6.3625 7.74071 6.3625C7.29071 6.375 6.84071 6.375 6.36571 6.375Z" fill="white"/>
<path d="M18.3033 6.375C17.6283 6.375 16.9471 6.375 16.2721 6.375C15.8033 6.375 15.4846 6.08125 15.4908 5.6625C15.4971 5.25625 15.8096 4.96875 16.2658 4.96875C17.6346 4.96875 19.0033 4.96875 20.3783 4.96875C20.8346 4.96875 21.1471 5.25625 21.1471 5.66875C21.1471 6.08125 20.8346 6.375 20.3846 6.375C19.6908 6.375 18.9971 6.375 18.3033 6.375Z" fill="white"/>
<path d="M5.67795 17.3375C5.9967 17.0125 6.2967 16.7 6.5967 16.4C6.9342 16.0625 7.3592 16.0437 7.65295 16.35C7.94045 16.6437 7.9217 17.0562 7.5967 17.3937C7.29045 17.7062 6.9842 18.0062 6.6467 18.3437C6.9967 18.6812 7.32795 18.9937 7.6467 19.325C7.8467 19.5312 7.91545 19.7812 7.81545 20.0562C7.7217 20.3125 7.5342 20.4625 7.2717 20.5125C7.0217 20.5562 6.8092 20.4687 6.6342 20.2937C6.3217 19.9812 6.0092 19.6625 5.66545 19.3125C5.4342 19.55 5.2092 19.7812 4.99045 20.0062C4.8967 20.1 4.80295 20.1937 4.7092 20.2875C4.39045 20.5937 3.9717 20.6062 3.6842 20.3187C3.3967 20.0312 3.40295 19.6125 3.71545 19.2937C4.02795 18.975 4.3467 18.6687 4.6842 18.3312C4.35295 18.0062 4.04045 17.6937 3.72795 17.3812C3.5467 17.2 3.4467 16.9875 3.49045 16.7312C3.5342 16.4625 3.69045 16.275 3.9467 16.1812C4.2217 16.0812 4.4717 16.1437 4.67795 16.3437C4.95295 16.6062 5.2217 16.8812 5.49045 17.15C5.5342 17.2062 5.59045 17.2562 5.67795 17.3375Z" fill="white"/>
<path d="M18.3158 16.2188C19.0033 16.2188 19.6846 16.2188 20.3721 16.2188C20.8283 16.2188 21.1408 16.5063 21.1471 16.9125C21.1533 17.325 20.8346 17.6187 20.3846 17.6187C19.0096 17.6187 17.6283 17.6187 16.2533 17.6187C15.8033 17.6187 15.4846 17.3188 15.4908 16.9125C15.4971 16.5063 15.8096 16.2188 16.2658 16.2188C16.9471 16.2188 17.6283 16.2188 18.3158 16.2188Z" fill="white"/>
<path d="M18.3157 20.4375C17.6282 20.4375 16.947 20.4375 16.2595 20.4375C15.8032 20.4375 15.4907 20.15 15.4845 19.7437C15.4782 19.325 15.8032 19.0375 16.272 19.0312C17.6345 19.0312 18.997 19.0312 20.3595 19.0312C20.8282 19.0312 21.147 19.3187 21.147 19.7375C21.147 20.1562 20.8282 20.4375 20.3532 20.4375C19.672 20.4375 18.997 20.4375 18.3157 20.4375Z" fill="white"/>
</svg>
