<svg width="27" height="27" viewBox="0 0 27 27" fill="none" xmlns="http://www.w3.org/2000/svg">
<path d="M1.36512 14.2756C1.21177 14.2756 1.09249 14.2842 0.981737 14.2756C0.453523 14.2416 0.0190243 13.8326 0.0190243 13.3129C0.0105047 11.6346 -0.0235736 9.95621 0.0275439 8.27785C0.0786614 6.67617 1.43327 5.47491 3.10311 5.43231C3.54613 5.42379 3.99767 5.43231 4.44921 5.43231C4.33845 5.04893 4.20214 4.69111 4.1425 4.32477C3.86136 2.64641 4.76443 0.985093 6.30647 0.320566C7.91668 -0.37804 9.73987 0.0905374 10.7878 1.47923C11.546 2.47602 12.2957 3.48133 13.054 4.48664C13.1136 4.57184 13.1818 4.64851 13.267 4.75927C13.7696 4.09474 14.2552 3.44725 14.7323 2.80828C15.0646 2.36527 15.3969 1.92225 15.7291 1.48775C16.7344 0.175733 18.4298 -0.318402 19.9804 0.23537C21.5054 0.789143 22.5107 2.26303 22.4255 3.89879C22.4 4.40996 22.2296 4.9041 22.1103 5.44935C22.4766 5.44935 22.8856 5.44935 23.2945 5.44935C24.8536 5.45787 26.0549 6.34391 26.4127 7.76668C26.4808 8.04783 26.5064 8.35453 26.5149 8.65272C26.5234 10.1181 26.5234 11.5835 26.5234 13.0488C26.5234 13.9093 26.1827 14.2671 25.3222 14.3012C25.2796 14.3012 25.2455 14.3097 25.1859 14.3182C25.1773 14.429 25.1688 14.5312 25.1688 14.6335C25.1773 17.053 25.1773 19.4811 25.1859 21.9007C25.2029 24.6014 22.9963 26.7142 20.2956 26.5524C20.1508 26.5438 19.9974 26.5353 19.8526 26.5353C15.4565 26.5353 11.0519 26.5268 6.65578 26.5438C5.89753 26.5438 5.14781 26.5779 4.42365 26.3138C2.51526 25.6322 1.314 23.8942 1.33104 21.8581C1.34808 19.4385 1.34808 17.0104 1.3566 14.5909C1.36512 14.4971 1.36512 14.412 1.36512 14.2756ZM3.4013 14.2927C3.4013 14.446 3.4013 14.5738 3.4013 14.6931C3.4013 16.84 3.4013 18.987 3.4013 21.1339C3.4013 21.4747 3.41834 21.8155 3.45242 22.1563C3.57169 23.4171 4.25326 24.1754 5.47156 24.3969C5.80382 24.4565 6.1446 24.4821 6.48539 24.4821C8.30006 24.4906 10.1232 24.4821 11.9379 24.4821C12.0402 24.4821 12.1424 24.4821 12.2276 24.4821C12.2276 21.0572 12.2276 17.675 12.2276 14.2927C9.29685 14.2927 6.37463 14.2927 3.4013 14.2927ZM14.3149 14.2927C14.3149 17.7005 14.3149 21.0828 14.3149 24.4821C14.4001 24.4821 14.4597 24.4821 14.5279 24.4821C16.4022 24.4821 18.268 24.4821 20.1423 24.4821C20.4319 24.4821 20.7131 24.4565 21.0028 24.4139C22.1529 24.2435 22.8345 23.5961 23.0389 22.4544C23.1071 22.0796 23.1412 21.6962 23.1412 21.3128C23.1497 19.0807 23.1497 16.8486 23.1412 14.6164C23.1412 14.5142 23.1326 14.412 23.1241 14.2927C20.1764 14.2927 17.2541 14.2927 14.3149 14.2927ZM12.2361 7.51109C12.185 7.49405 12.1679 7.47701 12.1509 7.47701C9.12645 7.47701 6.09348 7.46849 3.06903 7.47701C2.45562 7.47701 2.0552 7.92855 2.04668 8.55048C2.03816 9.65803 2.04668 10.7571 2.04668 11.8646C2.04668 11.9754 2.04668 12.0946 2.04668 12.2139C5.46304 12.2139 8.84531 12.2139 12.2361 12.2139C12.2361 10.6463 12.2361 9.08721 12.2361 7.51109ZM14.3149 7.47701C14.3149 9.09573 14.3149 10.6633 14.3149 12.2309C17.7142 12.2309 21.0879 12.2309 24.4958 12.2309C24.4958 12.1117 24.4958 12.0094 24.4958 11.9072C24.4958 10.8422 24.4958 9.78582 24.4958 8.72087C24.4958 7.86039 24.1124 7.48553 23.2519 7.48553C20.3979 7.48553 17.5353 7.48553 14.6812 7.48553C14.5619 7.47701 14.4427 7.47701 14.3149 7.47701ZM15.3372 5.40676C15.4565 5.41527 15.5076 5.43231 15.5673 5.43231C16.6066 5.43231 17.6546 5.43231 18.6939 5.43231C18.8388 5.43231 18.9921 5.41527 19.137 5.3812C19.8611 5.19377 20.3723 4.57184 20.4064 3.84767C20.449 3.09795 20.006 2.41638 19.2988 2.15228C18.6002 1.88817 17.8505 2.09264 17.3819 2.68901C16.7941 3.44725 16.2318 4.21401 15.6525 4.98078C15.5587 5.10857 15.465 5.23636 15.3372 5.40676ZM11.2052 5.41527C11.0348 5.18525 10.907 5.01485 10.7707 4.83594C10.2255 4.11178 9.68875 3.38761 9.13498 2.67197C8.65788 2.05856 7.85704 1.87113 7.15843 2.16931C6.46835 2.4675 6.04237 3.21722 6.13608 3.94991C6.23832 4.69963 6.84321 5.37268 7.56737 5.40676C8.76011 5.44935 9.95285 5.41527 11.2052 5.41527Z" fill="black"/>
</svg>
