<svg width="26" height="26" viewBox="0 0 26 26" fill="none" xmlns="http://www.w3.org/2000/svg">
<path d="M0.00983 16.653C0.172025 16.3188 0.2949 15.9551 0.506245 15.6553C1.03215 14.9131 1.78906 14.5642 2.69342 14.5592C3.72065 14.5494 4.7528 14.5347 5.78004 14.5691C6.1929 14.5789 6.60576 14.7018 7.05302 14.7804C7.05302 14.6821 7.04811 14.5396 7.05302 14.3971C7.11692 12.957 8.26211 11.8265 9.70221 11.8118C11.565 11.797 13.4229 11.797 15.2856 11.8118C16.7356 11.8216 17.8906 12.957 17.9397 14.4118C17.9643 15.1146 17.9496 15.8175 17.9496 16.5154C17.9496 16.6039 17.9496 16.6924 17.9496 16.7661C19.4831 16.3286 21.0264 16.5203 22.5549 16.5597C23.936 16.5941 25.0124 17.7884 25.0272 19.1744C25.0419 20.8799 25.0321 22.5854 25.0321 24.2909C25.0321 24.6301 24.8699 24.8611 24.5897 25.0282C16.5242 25.0282 8.45871 25.0282 0.3932 25.0282C0.260495 24.8955 0.132705 24.7677 0 24.635C0.00983 21.976 0.00983 19.3121 0.00983 16.653ZM16.4702 23.5979C16.4751 23.5193 16.48 23.4652 16.48 23.4112C16.48 20.4769 16.4849 17.5377 16.48 14.6035C16.48 13.7778 15.9688 13.2813 15.1431 13.2813C13.4032 13.2813 11.6682 13.2813 9.9283 13.2813C8.99445 13.2813 8.51278 13.7581 8.51278 14.6969C8.51278 17.5771 8.51278 20.4572 8.51278 23.3374C8.51278 23.4259 8.52261 23.5095 8.52261 23.6078C11.1816 23.5979 13.8111 23.5979 16.4702 23.5979ZM7.03336 23.5979C7.03828 23.534 7.04319 23.4947 7.04319 23.4554C7.04319 21.4157 7.04811 19.3809 7.03828 17.3411C7.03336 16.5252 6.51237 16.0288 5.69157 16.0239C4.72823 16.019 3.76489 16.019 2.80646 16.0239C1.93159 16.0239 1.43026 16.5302 1.43026 17.4099C1.43026 19.3809 1.43026 21.3567 1.43026 23.3276C1.43026 23.4161 1.43026 23.4996 1.43026 23.593C3.31271 23.5979 5.16075 23.5979 7.03336 23.5979ZM23.5674 23.593C23.5674 23.4947 23.5674 23.4062 23.5674 23.3178C23.5674 22.0153 23.5674 20.7079 23.5674 19.4054C23.5674 18.4912 23.0808 17.9948 22.1666 17.9948C21.2279 17.9948 20.2891 17.9899 19.3504 17.9948C19.1832 17.9948 19.0063 18.0096 18.8441 18.0538C18.2789 18.2062 17.9545 18.6731 17.9496 19.3317C17.9447 20.6932 17.9496 22.0546 17.9496 23.4161C17.9496 23.4701 17.9594 23.5291 17.9643 23.593C19.832 23.593 21.6899 23.593 23.5674 23.593Z" fill="black"/>
<path d="M8.94028 9.39358C9.05824 8.69565 9.12705 8.02229 9.29416 7.38334C9.46127 6.76405 9.35805 6.31679 8.83215 5.91376C8.35539 5.55005 7.96219 5.08312 7.52476 4.66043C7.28392 4.42943 7.1463 4.16893 7.24952 3.8298C7.35765 3.48083 7.63289 3.34321 7.96711 3.29406C8.783 3.1761 9.59889 3.06306 10.4099 2.93527C10.5082 2.92052 10.631 2.83205 10.6753 2.74358C11.0586 1.9965 11.4223 1.23959 11.7959 0.492514C12.0171 0.0452487 12.4447 -0.126776 12.8182 0.0993137C12.9755 0.192699 13.1131 0.359809 13.1967 0.526919C13.5751 1.25925 13.9339 1.9965 14.2927 2.73867C14.3566 2.87137 14.4352 2.93035 14.5827 2.95001C15.3986 3.05814 16.2145 3.18102 17.0254 3.29898C17.3548 3.34813 17.6202 3.48083 17.7283 3.81997C17.8364 4.1591 17.7037 4.4196 17.4629 4.65552C16.878 5.22074 16.298 5.7958 15.7082 6.36102C15.5854 6.47407 15.5509 6.58711 15.5804 6.74931C15.723 7.54062 15.8606 8.33685 15.9982 9.13308C16.0572 9.4673 16.0277 9.77203 15.7279 9.98829C15.433 10.2046 15.1332 10.1505 14.8334 9.98829C14.1207 9.60984 13.4031 9.24121 12.6953 8.85784C12.5381 8.77429 12.4201 8.7792 12.2677 8.86276C11.5452 9.25104 10.8129 9.63441 10.0806 10.0129C9.6677 10.2242 9.25484 10.1357 9.05332 9.78186C9.00417 9.64916 8.9796 9.50171 8.94028 9.39358ZM10.6654 8.04687C11.0095 7.86993 11.2946 7.71756 11.5845 7.5652C12.5381 7.05404 12.4643 7.05404 13.4178 7.5652C13.7078 7.71756 13.9978 7.86993 14.332 8.04687C14.2534 7.5652 14.2092 7.13268 14.101 6.71982C13.9683 6.20374 14.1158 5.8302 14.509 5.48615C14.8284 5.206 15.1037 4.86686 15.3986 4.5523C14.9759 4.49332 14.5434 4.40977 14.1059 4.37045C13.6292 4.33113 13.3048 4.13453 13.1131 3.67252C12.9411 3.25474 12.715 2.86154 12.4987 2.41919C12.4398 2.52732 12.4004 2.59122 12.366 2.66494C12.1694 3.05814 11.9728 3.45134 11.7811 3.84946C11.6484 4.12961 11.4322 4.29181 11.1225 4.32621C10.9112 4.35079 10.7048 4.38519 10.4934 4.4196C10.1887 4.46383 9.87904 4.51298 9.60872 4.55722C9.93802 4.9111 10.2428 5.27481 10.5917 5.59428C10.9112 5.88918 10.9947 6.21849 10.9112 6.63135C10.8178 7.0737 10.7539 7.53571 10.6654 8.04687Z" fill="black"/>
</svg>
