<svg width="22" height="26" viewBox="0 0 22 26" fill="none" xmlns="http://www.w3.org/2000/svg">
<path d="M17.7079 6.75064C17.7079 10.4716 14.6635 13.5086 10.9426 13.5013C7.22164 13.4939 4.17724 10.4495 4.19195 6.73594C4.20665 3.015 7.229 0.00736695 10.9426 1.33259e-05C14.6709 -0.0073403 17.7079 3.02971 17.7079 6.75064ZM10.9499 1.76488C8.19967 1.76488 5.94946 4.00774 5.95682 6.75064C5.95682 9.49355 8.20703 11.7438 10.9499 11.7438C13.6928 11.7438 15.943 9.49355 15.943 6.75064C15.9504 4.00774 13.7002 1.76488 10.9499 1.76488Z" fill="white"/>
<path d="M10.6561 15.2514C13.7814 15.2956 16.3699 16.0603 18.5907 17.8473C20.3114 19.2297 21.4586 20.9726 21.8189 23.1786C21.8851 23.5757 21.8998 23.9802 21.9071 24.3846C21.9145 24.8185 21.5689 25.1862 21.1571 25.2303C20.6938 25.2818 20.282 25.0097 20.1938 24.5611C20.1349 24.2743 20.157 23.9802 20.1202 23.686C19.8481 21.6123 18.7377 20.0681 17.0758 18.8915C15.0315 17.4502 12.7298 16.906 10.2516 17.0531C8.28088 17.1634 6.44982 17.7443 4.83203 18.8988C3.28776 19.9945 2.20678 21.4211 1.84645 23.3184C1.78027 23.664 1.78027 24.0317 1.75086 24.3846C1.71409 24.7891 1.46406 25.12 1.09638 25.2156C0.736056 25.3112 0.324253 25.1788 0.140412 24.8406C0.0448148 24.6714 -0.00666059 24.4582 0.000693036 24.267C0.0301075 21.98 0.971372 20.0754 2.58182 18.5017C4.35404 16.7663 6.52336 15.7956 8.96476 15.4206C9.61188 15.325 10.2811 15.2882 10.6561 15.2514Z" fill="white"/>
</svg>
