<svg width="23" height="26" viewBox="0 0 23 26" fill="none" xmlns="http://www.w3.org/2000/svg">
<path d="M11.3433 22.7339C15.726 22.7102 19.5639 19.4251 20.0772 15.1292C20.5352 11.3072 19.0743 8.34586 15.8287 6.26899C15.2917 5.92943 15.0311 5.41613 15.1496 4.87915C15.347 4.0026 16.2709 3.60776 17.0685 4.07367C18.5768 4.95022 19.8166 6.11895 20.78 7.57197C25.2496 14.308 21.5065 23.3735 13.5781 25.0082C7.36329 26.2874 1.22746 22.0863 0.161388 15.8084C-0.628295 11.1176 1.52754 6.45062 5.58651 4.08157C6.04452 3.81308 6.50254 3.77359 6.95266 4.04998C7.37119 4.30268 7.5844 4.69752 7.56071 5.18713C7.53702 5.68463 7.26853 6.02419 6.85 6.26899C5.65758 6.97181 4.68627 7.91153 3.93607 9.07236C0.524642 14.3238 3.6123 21.4625 9.76393 22.5365C10.2851 22.6312 10.8142 22.6707 11.3433 22.7339Z" fill="white"/>
<path d="M12.607 7.57196C12.607 9.64882 12.607 11.7257 12.607 13.8026C12.607 14.5212 12.1806 15.0187 11.5014 15.1134C10.8381 15.2082 10.1827 14.7107 10.1037 14.0474C10.0879 13.9368 10.0879 13.8341 10.0879 13.7236C10.0879 9.61724 10.0879 5.51089 10.0879 1.40454C10.0879 1.2387 10.0879 1.06497 10.1353 0.907038C10.309 0.291085 10.9013 -0.0800653 11.5488 0.0146966C12.1411 0.0936649 12.5991 0.606959 12.5991 1.2545C12.607 3.35505 12.607 5.46351 12.607 7.57196Z" fill="white"/>
</svg>
