<svg width="26" height="25" viewBox="0 0 26 25" fill="none" xmlns="http://www.w3.org/2000/svg">
<path d="M17.2689 20.188C17.1261 20.188 17.0119 20.188 16.8977 20.188C13.2713 20.188 9.6163 20.188 5.98989 20.188C5.93278 20.188 5.84712 20.188 5.79001 20.188C5.47591 20.188 5.27603 20.0174 5.30458 19.7614C5.30458 19.5054 5.50446 19.3632 5.79001 19.3347C6.47531 19.3347 7.13206 19.3347 7.81737 19.3347C11.044 19.3347 14.2707 19.3347 17.4973 19.3347C18.0113 19.3347 18.1255 19.4485 18.1255 19.9605C18.1255 20.7 18.1255 21.4395 18.1255 22.1791C18.1255 22.2644 18.1255 22.3497 18.1255 22.5204C20.0958 20.3587 22.0375 18.2824 23.9506 16.1776C22.0375 14.0159 20.1243 11.9395 18.1541 9.80629C18.1541 9.92006 18.1255 9.97695 18.1255 10.0623C18.1255 10.8302 18.1255 11.6267 18.1255 12.3946C18.1255 12.7928 17.9827 12.935 17.583 12.935C14.7561 12.935 11.9292 12.935 9.07377 12.935C8.95955 12.935 8.87388 12.935 8.70256 12.935C8.70256 13.0488 8.70256 13.1341 8.70256 13.2195C8.70256 14.215 8.70256 15.2105 8.70256 16.206C8.70256 16.4335 8.674 16.6326 8.41701 16.718C8.18858 16.8033 8.01725 16.6895 7.84592 16.5189C5.67579 14.1296 3.44854 11.6835 1.19274 9.26587C0.935753 9.00988 0.935753 8.81078 1.19274 8.55479C3.44854 6.10868 5.67579 3.66257 7.90303 1.21646C8.04581 1.0458 8.21713 0.932024 8.44557 1.0458C8.674 1.13113 8.73111 1.33023 8.73111 1.52933C8.73111 2.52484 8.73111 3.52035 8.73111 4.51586C8.73111 4.60119 8.73111 4.71496 8.73111 4.82874C8.84533 4.82874 8.95955 4.82874 9.04521 4.82874C12.7002 4.82874 16.3266 4.82874 19.9816 4.82874C20.0387 4.82874 20.1243 4.82874 20.1814 4.82874C20.4955 4.82874 20.6954 4.9994 20.6954 5.25538C20.6954 5.51137 20.4955 5.68203 20.1814 5.68203C16.2409 5.68203 12.329 5.68203 8.38846 5.68203C8.01725 5.68203 7.87448 5.53982 7.87448 5.14161C7.87448 4.37365 7.87448 3.60568 7.87448 2.86616C7.87448 2.78083 7.87448 2.6955 7.87448 2.52484C5.90422 4.68652 3.99108 6.76287 2.04938 8.86767C3.99108 10.9725 5.90422 13.0773 7.84592 15.182C7.84592 15.0683 7.87448 15.0114 7.87448 14.9545C7.87448 14.1865 7.87448 13.3901 7.87448 12.6222C7.87448 12.1955 8.01725 12.0533 8.44557 12.0533C11.2725 12.0533 14.0993 12.0533 16.9262 12.0533C17.0405 12.0533 17.1261 12.0533 17.2689 12.0533C17.2689 11.9395 17.2689 11.8542 17.2689 11.7689C17.2689 10.7734 17.2689 9.77785 17.2689 8.78234C17.2689 8.55479 17.2974 8.35569 17.5544 8.27036C17.7829 8.18503 17.9542 8.2988 18.1255 8.46946C20.3528 10.8871 22.58 13.3048 24.8073 15.7509C25.0642 16.0353 25.0642 16.206 24.8073 16.5189C22.5515 18.9365 20.3242 21.3542 18.097 23.7719C17.9542 23.9425 17.7829 24.0563 17.5259 23.971C17.2974 23.8857 17.2403 23.6866 17.2403 23.459C17.2403 22.4635 17.2403 21.4964 17.2403 20.5009C17.2689 20.4156 17.2689 20.3018 17.2689 20.188Z" fill="white" stroke="white" stroke-width="0.5"/>
</svg>
