<svg width="968" height="60" viewBox="0 0 968 60" fill="none" xmlns="http://www.w3.org/2000/svg">
<rect x="0.5" y="5.5" width="967" height="49" rx="24.5" fill="#101012" stroke="#1D1D20"/>
<path d="M26 50C14.9543 50 6 41.0457 6 30V30C6 18.9543 14.9543 10 26 10L799 10C810.046 10 819 18.9543 819 30V30C819 41.0457 810.046 50 799 50L26 50Z" fill="url(#paint0_linear_506_201)"/>
<path d="M830 30C830 46.5685 816.569 60 800 60V60C783.431 60 770 46.5685 770 30V30C770 13.4315 783.431 4.07115e-06 800 2.62268e-06V2.62268e-06C816.569 1.17422e-06 830 13.4315 830 30V30Z" fill="#00FFFF"/>
<path d="M36.92 37V20.2H43.712C44.752 20.2 45.664 20.384 46.448 20.752C47.248 21.104 47.872 21.616 48.32 22.288C48.768 22.944 48.992 23.736 48.992 24.664V24.928C48.992 26.032 48.728 26.904 48.2 27.544C47.672 28.184 47.048 28.616 46.328 28.84V29.176C46.904 29.192 47.376 29.384 47.744 29.752C48.128 30.104 48.32 30.64 48.32 31.36V37H46.328V31.6C46.328 31.12 46.192 30.752 45.92 30.496C45.664 30.24 45.272 30.112 44.744 30.112H38.936V37H36.92ZM38.936 28.288H43.52C44.624 28.288 45.472 28.024 46.064 27.496C46.672 26.952 46.976 26.2 46.976 25.24V25.072C46.976 24.112 46.68 23.368 46.088 22.84C45.496 22.296 44.64 22.024 43.52 22.024H38.936V28.288ZM57.5086 37.336C56.3246 37.336 55.2846 37.088 54.3886 36.592C53.4926 36.08 52.7966 35.368 52.3006 34.456C51.8046 33.544 51.5566 32.488 51.5566 31.288V31C51.5566 29.784 51.8046 28.72 52.3006 27.808C52.7966 26.896 53.4846 26.192 54.3646 25.696C55.2446 25.184 56.2526 24.928 57.3886 24.928C58.4926 24.928 59.4686 25.168 60.3166 25.648C61.1646 26.112 61.8286 26.784 62.3086 27.664C62.7886 28.544 63.0286 29.576 63.0286 30.76V31.624H53.4526C53.5006 32.888 53.9086 33.88 54.6766 34.6C55.4446 35.304 56.4046 35.656 57.5566 35.656C58.5646 35.656 59.3406 35.424 59.8846 34.96C60.4286 34.496 60.8446 33.944 61.1326 33.304L62.7646 34.096C62.5246 34.592 62.1886 35.088 61.7566 35.584C61.3406 36.08 60.7886 36.496 60.1006 36.832C59.4286 37.168 58.5646 37.336 57.5086 37.336ZM53.4766 30.064H61.1086C61.0446 28.976 60.6686 28.128 59.9806 27.52C59.3086 26.912 58.4446 26.608 57.3886 26.608C56.3166 26.608 55.4366 26.912 54.7486 27.52C54.0606 28.128 53.6366 28.976 53.4766 30.064ZM66.3358 37V25.264H68.1838V26.728H68.5198C68.7438 26.312 69.1118 25.928 69.6238 25.576C70.1358 25.224 70.8558 25.048 71.7838 25.048C72.6958 25.048 73.4318 25.248 73.9918 25.648C74.5678 26.048 74.9838 26.536 75.2398 27.112H75.5758C75.8478 26.536 76.2558 26.048 76.7998 25.648C77.3598 25.248 78.1358 25.048 79.1278 25.048C79.9118 25.048 80.5998 25.208 81.1918 25.528C81.7838 25.848 82.2478 26.312 82.5838 26.92C82.9358 27.512 83.1118 28.224 83.1118 29.056V37H81.2158V29.224C81.2158 28.44 80.9838 27.824 80.5198 27.376C80.0718 26.912 79.4398 26.68 78.6238 26.68C77.7598 26.68 77.0478 26.96 76.4878 27.52C75.9438 28.08 75.6718 28.888 75.6718 29.944V37H73.7758V29.224C73.7758 28.44 73.5438 27.824 73.0798 27.376C72.6318 26.912 71.9998 26.68 71.1838 26.68C70.3198 26.68 69.6078 26.96 69.0478 27.52C68.5038 28.08 68.2318 28.888 68.2318 29.944V37H66.3358ZM90.5842 37.336C89.7682 37.336 89.0242 37.192 88.3522 36.904C87.6802 36.616 87.1522 36.2 86.7682 35.656C86.3842 35.112 86.1922 34.448 86.1922 33.664C86.1922 32.864 86.3842 32.208 86.7682 31.696C87.1522 31.168 87.6802 30.776 88.3522 30.52C89.0242 30.248 89.7762 30.112 90.6082 30.112H94.5682V29.248C94.5682 28.416 94.3202 27.76 93.8242 27.28C93.3442 26.8 92.6242 26.56 91.6642 26.56C90.7202 26.56 89.9842 26.792 89.4562 27.256C88.9282 27.704 88.5682 28.312 88.3762 29.08L86.6002 28.504C86.7922 27.848 87.0962 27.256 87.5122 26.728C87.9282 26.184 88.4802 25.752 89.1682 25.432C89.8722 25.096 90.7122 24.928 91.6882 24.928C93.1922 24.928 94.3602 25.32 95.1922 26.104C96.0242 26.872 96.4402 27.96 96.4402 29.368V34.672C96.4402 35.152 96.6642 35.392 97.1122 35.392H98.1922V37H96.5362C96.0082 37 95.5842 36.856 95.2642 36.568C94.9442 36.264 94.7842 35.864 94.7842 35.368V35.248H94.4962C94.3202 35.552 94.0802 35.872 93.7762 36.208C93.4882 36.528 93.0882 36.792 92.5762 37C92.0642 37.224 91.4002 37.336 90.5842 37.336ZM90.8002 35.704C91.9202 35.704 92.8242 35.376 93.5122 34.72C94.2162 34.048 94.5682 33.112 94.5682 31.912V31.648H90.6802C89.9282 31.648 89.3042 31.816 88.8082 32.152C88.3282 32.472 88.0882 32.96 88.0882 33.616C88.0882 34.272 88.3362 34.784 88.8322 35.152C89.3442 35.52 90.0002 35.704 90.8002 35.704ZM100.789 37V25.264H102.685V37H100.789ZM101.749 23.44C101.333 23.44 100.981 23.304 100.693 23.032C100.421 22.76 100.285 22.416 100.285 22C100.285 21.568 100.421 21.216 100.693 20.944C100.981 20.672 101.333 20.536 101.749 20.536C102.165 20.536 102.509 20.672 102.781 20.944C103.053 21.216 103.189 21.568 103.189 22C103.189 22.416 103.053 22.76 102.781 23.032C102.509 23.304 102.165 23.44 101.749 23.44ZM106.672 37V25.264H108.52V27.256H108.856C109.112 26.696 109.544 26.192 110.152 25.744C110.776 25.28 111.688 25.048 112.888 25.048C113.768 25.048 114.552 25.232 115.24 25.6C115.944 25.968 116.504 26.512 116.92 27.232C117.336 27.952 117.544 28.84 117.544 29.896V37H115.648V30.04C115.648 28.872 115.352 28.024 114.76 27.496C114.184 26.968 113.4 26.704 112.408 26.704C111.272 26.704 110.344 27.072 109.624 27.808C108.92 28.544 108.568 29.64 108.568 31.096V37H106.672ZM121.39 37V25.264H123.286V37H121.39ZM122.35 23.44C121.934 23.44 121.582 23.304 121.294 23.032C121.022 22.76 120.886 22.416 120.886 22C120.886 21.568 121.022 21.216 121.294 20.944C121.582 20.672 121.934 20.536 122.35 20.536C122.766 20.536 123.11 20.672 123.382 20.944C123.654 21.216 123.79 21.568 123.79 22C123.79 22.416 123.654 22.76 123.382 23.032C123.11 23.304 122.766 23.44 122.35 23.44ZM127.273 37V25.264H129.121V27.256H129.457C129.713 26.696 130.145 26.192 130.753 25.744C131.377 25.28 132.289 25.048 133.489 25.048C134.369 25.048 135.153 25.232 135.841 25.6C136.545 25.968 137.105 26.512 137.521 27.232C137.937 27.952 138.145 28.84 138.145 29.896V37H136.249V30.04C136.249 28.872 135.953 28.024 135.361 27.496C134.785 26.968 134.001 26.704 133.009 26.704C131.873 26.704 130.945 27.072 130.225 27.808C129.521 28.544 129.169 29.64 129.169 31.096V37H127.273ZM141.416 31.192V30.856C141.416 29.624 141.664 28.568 142.16 27.688C142.656 26.808 143.328 26.128 144.176 25.648C145.024 25.168 145.952 24.928 146.96 24.928C148.192 24.928 149.136 25.168 149.792 25.648C150.464 26.112 150.96 26.632 151.28 27.208H151.616V25.264H153.416V39.736C153.416 40.376 153.24 40.88 152.888 41.248C152.536 41.616 152.024 41.8 151.352 41.8H143.384V40.12H150.848C151.328 40.12 151.568 39.88 151.568 39.4V34.936H151.232C151.04 35.288 150.768 35.632 150.416 35.968C150.064 36.304 149.608 36.584 149.048 36.808C148.488 37.016 147.792 37.12 146.96 37.12C145.952 37.12 145.024 36.88 144.176 36.4C143.328 35.92 142.656 35.24 142.16 34.36C141.664 33.464 141.416 32.408 141.416 31.192ZM147.464 35.44C148.68 35.44 149.664 35.056 150.416 34.288C151.184 33.52 151.568 32.464 151.568 31.12V30.928C151.568 29.568 151.184 28.512 150.416 27.76C149.664 26.992 148.68 26.608 147.464 26.608C146.264 26.608 145.272 26.992 144.488 27.76C143.72 28.512 143.336 29.568 143.336 30.928V31.12C143.336 32.464 143.72 33.52 144.488 34.288C145.272 35.056 146.264 35.44 147.464 35.44ZM158.422 37.336C157.958 37.336 157.566 37.184 157.246 36.88C156.942 36.576 156.79 36.184 156.79 35.704C156.79 35.224 156.942 34.832 157.246 34.528C157.566 34.224 157.958 34.072 158.422 34.072C158.902 34.072 159.294 34.224 159.598 34.528C159.902 34.832 160.054 35.224 160.054 35.704C160.054 36.184 159.902 36.576 159.598 36.88C159.294 37.184 158.902 37.336 158.422 37.336ZM158.422 28.192C157.958 28.192 157.566 28.04 157.246 27.736C156.942 27.432 156.79 27.04 156.79 26.56C156.79 26.08 156.942 25.688 157.246 25.384C157.566 25.08 157.958 24.928 158.422 24.928C158.902 24.928 159.294 25.08 159.598 25.384C159.902 25.688 160.054 26.08 160.054 26.56C160.054 27.04 159.902 27.432 159.598 27.736C159.294 28.04 158.902 28.192 158.422 28.192ZM174.833 37.336C173.585 37.336 172.497 37.128 171.569 36.712C170.657 36.296 169.945 35.696 169.433 34.912C168.937 34.128 168.689 33.192 168.689 32.104H171.809C171.809 32.776 172.041 33.36 172.505 33.856C172.985 34.352 173.761 34.6 174.833 34.6C175.921 34.6 176.753 34.32 177.329 33.76C177.905 33.184 178.193 32.408 178.193 31.432V29.704H177.761C177.489 30.024 177.073 30.328 176.513 30.616C175.969 30.904 175.153 31.048 174.065 31.048C173.105 31.048 172.209 30.84 171.377 30.424C170.545 30.008 169.873 29.408 169.361 28.624C168.849 27.824 168.593 26.864 168.593 25.744V25.456C168.593 24.336 168.857 23.36 169.385 22.528C169.913 21.696 170.657 21.048 171.617 20.584C172.577 20.104 173.697 19.864 174.977 19.864C176.257 19.864 177.369 20.104 178.313 20.584C179.257 21.064 179.985 21.728 180.497 22.576C181.009 23.424 181.265 24.4 181.265 25.504V31.24C181.265 32.6 180.985 33.736 180.425 34.648C179.881 35.544 179.121 36.216 178.145 36.664C177.185 37.112 176.081 37.336 174.833 37.336ZM174.929 28.6C175.601 28.6 176.177 28.48 176.657 28.24C177.153 28 177.529 27.664 177.785 27.232C178.057 26.8 178.193 26.288 178.193 25.696V25.504C178.193 24.608 177.897 23.904 177.305 23.392C176.729 22.864 175.937 22.6 174.929 22.6C173.921 22.6 173.121 22.864 172.529 23.392C171.953 23.904 171.665 24.608 171.665 25.504V25.696C171.665 26.288 171.793 26.8 172.049 27.232C172.321 27.664 172.705 28 173.201 28.24C173.697 28.48 174.273 28.6 174.929 28.6ZM189.669 37.336C188.389 37.336 187.253 37.144 186.261 36.76C185.285 36.376 184.517 35.824 183.957 35.104C183.413 34.368 183.141 33.504 183.141 32.512V32.224C183.141 31.456 183.277 30.824 183.549 30.328C183.821 29.816 184.157 29.416 184.557 29.128C184.973 28.84 185.365 28.64 185.733 28.528V28.096C185.365 27.968 184.997 27.76 184.629 27.472C184.261 27.184 183.957 26.8 183.717 26.32C183.493 25.84 183.381 25.264 183.381 24.592V24.304C183.381 23.424 183.637 22.656 184.149 22C184.677 21.328 185.413 20.808 186.357 20.44C187.301 20.056 188.405 19.864 189.669 19.864C190.933 19.864 192.037 20.056 192.981 20.44C193.925 20.808 194.653 21.328 195.165 22C195.693 22.656 195.957 23.424 195.957 24.304V24.592C195.957 25.264 195.837 25.84 195.597 26.32C195.373 26.8 195.077 27.184 194.709 27.472C194.357 27.76 193.989 27.968 193.605 28.096V28.528C193.989 28.64 194.381 28.84 194.781 29.128C195.181 29.416 195.517 29.816 195.789 30.328C196.061 30.824 196.197 31.456 196.197 32.224V32.512C196.197 33.504 195.917 34.368 195.357 35.104C194.813 35.824 194.045 36.376 193.053 36.76C192.077 37.144 190.949 37.336 189.669 37.336ZM189.669 34.6C190.773 34.6 191.621 34.392 192.213 33.976C192.821 33.544 193.125 32.976 193.125 32.272V32.08C193.125 31.376 192.829 30.816 192.237 30.4C191.661 29.968 190.805 29.752 189.669 29.752C188.549 29.752 187.693 29.968 187.101 30.4C186.509 30.816 186.213 31.376 186.213 32.08V32.272C186.213 32.976 186.509 33.544 187.101 33.976C187.709 34.392 188.565 34.6 189.669 34.6ZM189.669 27.016C190.693 27.016 191.485 26.832 192.045 26.464C192.605 26.096 192.885 25.576 192.885 24.904V24.712C192.885 24.04 192.597 23.52 192.021 23.152C191.445 22.784 190.661 22.6 189.669 22.6C188.677 22.6 187.893 22.784 187.317 23.152C186.741 23.52 186.453 24.04 186.453 24.712V24.904C186.453 25.576 186.733 26.096 187.293 26.464C187.853 26.832 188.645 27.016 189.669 27.016ZM200.435 37.336C199.795 37.336 199.251 37.128 198.803 36.712C198.371 36.28 198.155 35.728 198.155 35.056C198.155 34.384 198.371 33.84 198.803 33.424C199.251 32.992 199.795 32.776 200.435 32.776C201.091 32.776 201.635 32.992 202.067 33.424C202.499 33.84 202.715 34.384 202.715 35.056C202.715 35.728 202.499 36.28 202.067 36.712C201.635 37.128 201.091 37.336 200.435 37.336ZM211.28 37.336C209.968 37.336 208.832 37.104 207.872 36.64C206.928 36.176 206.2 35.52 205.688 34.672C205.176 33.824 204.92 32.84 204.92 31.72V31.48H208.04V31.696C208.04 32.496 208.304 33.184 208.832 33.76C209.376 34.32 210.176 34.6 211.232 34.6C212.288 34.6 213.096 34.32 213.656 33.76C214.232 33.184 214.52 32.44 214.52 31.528V31.288C214.52 30.392 214.232 29.68 213.656 29.152C213.096 28.624 212.392 28.36 211.544 28.36C211.08 28.36 210.696 28.424 210.392 28.552C210.088 28.68 209.84 28.84 209.648 29.032C209.456 29.224 209.296 29.416 209.168 29.608H205.448V20.2H216.92V22.984H208.52V27.088H208.952C209.112 26.88 209.328 26.68 209.6 26.488C209.872 26.296 210.224 26.136 210.656 26.008C211.088 25.88 211.6 25.816 212.192 25.816C213.184 25.816 214.088 26.024 214.904 26.44C215.72 26.856 216.368 27.472 216.848 28.288C217.344 29.088 217.592 30.08 217.592 31.264V31.552C217.592 32.736 217.336 33.76 216.824 34.624C216.328 35.488 215.608 36.16 214.664 36.64C213.72 37.104 212.592 37.336 211.28 37.336ZM225.598 37.336C224.318 37.336 223.182 37.144 222.19 36.76C221.214 36.376 220.446 35.824 219.886 35.104C219.342 34.368 219.07 33.504 219.07 32.512V32.224C219.07 31.456 219.206 30.824 219.478 30.328C219.75 29.816 220.086 29.416 220.486 29.128C220.902 28.84 221.294 28.64 221.662 28.528V28.096C221.294 27.968 220.926 27.76 220.558 27.472C220.19 27.184 219.886 26.8 219.646 26.32C219.422 25.84 219.31 25.264 219.31 24.592V24.304C219.31 23.424 219.566 22.656 220.078 22C220.606 21.328 221.342 20.808 222.286 20.44C223.23 20.056 224.334 19.864 225.598 19.864C226.862 19.864 227.966 20.056 228.91 20.44C229.854 20.808 230.582 21.328 231.094 22C231.622 22.656 231.886 23.424 231.886 24.304V24.592C231.886 25.264 231.766 25.84 231.526 26.32C231.302 26.8 231.006 27.184 230.638 27.472C230.286 27.76 229.918 27.968 229.534 28.096V28.528C229.918 28.64 230.31 28.84 230.71 29.128C231.11 29.416 231.446 29.816 231.718 30.328C231.99 30.824 232.126 31.456 232.126 32.224V32.512C232.126 33.504 231.846 34.368 231.286 35.104C230.742 35.824 229.974 36.376 228.982 36.76C228.006 37.144 226.878 37.336 225.598 37.336ZM225.598 34.6C226.702 34.6 227.55 34.392 228.142 33.976C228.75 33.544 229.054 32.976 229.054 32.272V32.08C229.054 31.376 228.758 30.816 228.166 30.4C227.59 29.968 226.734 29.752 225.598 29.752C224.478 29.752 223.622 29.968 223.03 30.4C222.438 30.816 222.142 31.376 222.142 32.08V32.272C222.142 32.976 222.438 33.544 223.03 33.976C223.638 34.392 224.494 34.6 225.598 34.6ZM225.598 27.016C226.622 27.016 227.414 26.832 227.974 26.464C228.534 26.096 228.814 25.576 228.814 24.904V24.712C228.814 24.04 228.526 23.52 227.95 23.152C227.374 22.784 226.59 22.6 225.598 22.6C224.606 22.6 223.822 22.784 223.246 23.152C222.67 23.52 222.382 24.04 222.382 24.712V24.904C222.382 25.576 222.662 26.096 223.222 26.464C223.782 26.832 224.574 27.016 225.598 27.016ZM234.373 37V20.2H240.253L243.157 34.84H243.589L246.493 20.2H252.373V37H249.301V22.528H248.869L245.989 37H240.757L237.877 22.528H237.445V37H234.373Z" fill="white"/>
<defs>
<linearGradient id="paint0_linear_506_201" x1="237.359" y1="30.6742" x2="1035.22" y2="30.6741" gradientUnits="userSpaceOnUse">
<stop stop-color="#080808"/>
<stop offset="1" stop-color="#00FFFF"/>
</linearGradient>
</defs>
</svg>
