<svg width="565" height="81" viewBox="0 0 565 81" fill="none" xmlns="http://www.w3.org/2000/svg">
<rect x="0.5" y="46.5" width="564" height="29" rx="14.5" fill="#101012" stroke="#1D1D20"/>
<path d="M15 71C9.47716 71 5 66.5229 5 61V61C5 55.4772 9.47715 51 15 51L407 51C412.523 51 417 55.4771 417 61V61C417 66.5228 412.523 71 407 71L15 71Z" fill="url(#paint0_linear_541_2573)"/>
<path d="M252.656 6.152L238.808 22.952H232.736L243.512 9.92H234.8L231.08 6.152H252.656ZM275.853 19.16L272.037 23H258.069L254.253 19.16V10.016L258.069 6.2H272.037L275.853 10.016V19.16ZM270.789 19.232V9.944H259.317V19.232H270.789ZM278.992 22.952V19.232H282.712V22.952H278.992ZM301.831 6.2L306.895 6.152V23H301.831V16.304H287.911L285.343 12.872L301.831 6.2ZM293.887 12.872H301.831V9.656L293.887 12.872ZM332.244 19.16L328.428 23H314.46L310.644 19.16V10.016L314.46 6.2H328.428L332.244 10.016V19.16ZM327.18 19.232V9.944H315.708V19.232H327.18Z" fill="#00FFFF"/>
<path d="M423 61C423 72.0457 414.046 81 403 81V81C391.954 81 383 72.0457 383 61V61C383 49.9543 391.954 41 403 41V41C414.046 41 423 49.9543 423 61V61Z" fill="#00FFFF"/>
<defs>
<linearGradient id="paint0_linear_541_2573" x1="122.245" y1="61.3371" x2="526.574" y2="61.3371" gradientUnits="userSpaceOnUse">
<stop stop-color="#080808"/>
<stop offset="1" stop-color="#00FFFF"/>
</linearGradient>
</defs>
</svg>
