<svg width="50" height="50" viewBox="0 0 50 50" fill="none" xmlns="http://www.w3.org/2000/svg">
<circle cx="25" cy="25" r="25" fill="#101012"/>
<path d="M22.7662 40C22.7662 38.8777 22.7662 37.7669 22.7662 36.6332C20.5592 36.1293 18.6119 35.1444 17 33.4038C17.9412 32.4533 18.8824 31.5257 19.7803 30.621C20.2671 30.976 20.6999 31.3653 21.1867 31.6516C23.253 32.8655 25.4058 33.0602 27.6236 32.1899C28.4133 31.8807 29.03 31.3424 29.0949 30.369C29.1814 29.2697 28.8136 28.3764 27.9049 27.7695C27.061 27.1969 26.109 26.8992 25.1786 26.5556C23.7723 26.0403 22.3551 25.5822 20.992 24.9752C19.7046 24.4027 18.6444 23.4751 17.9412 22.1696C17.2705 20.9328 17.0541 19.5929 17.2055 18.2072C17.4976 15.6191 18.9689 14.0044 21.1434 13.0081C21.587 12.802 22.0522 12.6646 22.5282 12.5272C22.7337 12.4699 22.7986 12.3897 22.7986 12.1607C22.7878 11.2216 22.7986 10.2826 22.7986 9.34355C22.7986 9.24049 22.7986 9.12597 22.7986 9C24.1076 9 25.3734 9 26.6716 9C26.6716 9.11452 26.6824 9.21758 26.6824 9.3321C26.6824 10.1681 26.6932 11.0041 26.6716 11.84C26.6608 12.1263 26.7365 12.2294 27.0178 12.2638C28.6405 12.4813 30.1767 12.9738 31.5939 13.8556C31.6696 13.9014 31.7562 13.9586 31.8427 14.0273C31.1395 15.1954 30.458 16.3291 29.7656 17.4629C29.3762 17.2796 29.0083 17.0735 28.6189 16.9132C26.8663 16.2032 25.0813 16.0658 23.2638 16.5811C22.8094 16.7071 22.3659 16.9361 21.9656 17.188C20.635 18.0584 20.808 20.1655 22.0738 20.9328C23.0691 21.5397 24.1509 21.8718 25.2219 22.2612C26.4985 22.7307 27.7859 23.1773 29.03 23.727C30.0685 24.1851 30.9448 24.918 31.6588 25.857C32.4053 26.8419 32.8164 27.9756 32.9462 29.2239C33.076 30.4492 32.9895 31.6402 32.481 32.7739C31.7778 34.3314 30.6094 35.3506 29.1273 35.9804C28.4241 36.2782 27.6777 36.4499 26.942 36.6446C26.7149 36.7019 26.6716 36.7935 26.6824 36.9996C26.6824 37.9959 26.6716 38.9922 26.6716 40C25.3626 40 24.0644 40 22.7662 40Z" fill="white"/>
</svg>
