<svg width="26" height="27" viewBox="0 0 26 27" fill="none" xmlns="http://www.w3.org/2000/svg">
<path d="M0.879156 0.0140919C7.39165 3.375 13.9041 6.73591 20.4166 10.0968C22.0744 10.9494 23.7321 11.816 25.3898 12.6686C25.7032 12.8306 25.961 13.035 25.9958 13.4295C26.0306 13.8664 25.8495 14.1694 25.4664 14.3737C24.4147 14.9162 23.3629 15.4658 22.3112 16.0084C15.3459 19.6229 8.38071 23.2304 1.41548 26.8379C1.19259 26.9507 0.920947 27 0.670199 27C0.301042 27 0.00850182 26.6829 0.0293975 26.3095C0.043328 25.929 0.106015 25.5415 0.189598 25.1681C0.85826 22.1172 1.54085 19.0733 2.21648 16.0224C2.25131 15.8745 2.30006 15.804 2.46723 15.7758C3.84634 15.5433 5.21849 15.2897 6.59065 15.0501C8.14389 14.7753 9.69714 14.5076 11.2574 14.2328C12.4205 14.0284 13.5837 13.8241 14.74 13.6198C14.7818 13.6127 14.8166 13.5986 14.9211 13.5634C14.8235 13.5141 14.7818 13.4789 14.733 13.4718C13.1171 13.19 11.5011 12.9081 9.89217 12.6193C8.34588 12.3515 6.7996 12.0767 5.25332 11.8019C4.31998 11.6399 3.3936 11.4637 2.46026 11.3087C2.30006 11.2805 2.25131 11.203 2.21648 11.0551C1.49906 7.79984 0.774677 4.54462 0.0572584 1.28941C-0.0123939 0.972338 -0.0611505 0.620042 0.175667 0.359342C0.321937 0.204332 0.544825 0.119781 0.732886 0C0.774677 0.0140919 0.823434 0.0140919 0.879156 0.0140919Z" fill="black"/>
</svg>
